<svg xmlns="http://www.w3.org/2000/svg" width="375" viewBox="0 0 375 375" height="375" version="1.0"><defs><clipPath id="a"><path d="M 206 75.015625 L 219 75.015625 L 219 160 L 206 160 Z M 206 75.015625"/></clipPath><clipPath id="b"><path d="M 155 140 L 169 140 L 169 225.015625 L 155 225.015625 Z M 155 140"/></clipPath><clipPath id="c"><path d="M 124.84375 90 L 194 90 L 194 216 L 124.84375 216 Z M 124.84375 90"/></clipPath><clipPath id="d"><path d="M 181 90 L 250.09375 90 L 250.09375 216 L 181 216 Z M 181 90"/></clipPath></defs><path fill="#7ED957" d="M 181.164062 119.933594 L 185.90625 119.933594 L 185.90625 110.453125 L 189.03125 110.453125 L 189.03125 119.933594 L 193.773438 119.933594 L 193.773438 185.867188 L 189.03125 185.867188 L 189.03125 195.34375 L 185.90625 195.34375 L 185.90625 185.867188 L 181.164062 185.867188 Z M 181.164062 119.933594" fill-rule="evenodd"/><g clip-path="url(#a)"><path fill="#7ED957" d="M 206.386719 84.492188 L 211.132812 84.492188 L 211.132812 75.015625 L 214.253906 75.015625 L 214.253906 84.492188 L 219 84.492188 L 219 150.429688 L 214.253906 150.429688 L 214.253906 159.90625 L 211.132812 159.90625 L 211.132812 150.429688 L 206.386719 150.429688 Z M 206.386719 84.492188" fill-rule="evenodd"/></g><g clip-path="url(#b)"><path fill="#7ED957" d="M 155.9375 149.601562 L 160.683594 149.601562 L 160.683594 140.121094 L 163.804688 140.121094 L 163.804688 149.601562 L 168.550781 149.601562 L 168.550781 215.535156 L 163.804688 215.535156 L 163.804688 225.015625 L 160.683594 225.015625 L 160.683594 215.535156 L 155.9375 215.535156 Z M 155.9375 149.601562" fill-rule="evenodd"/></g><g clip-path="url(#c)"><path fill="#FFF" d="M 137.472656 154.550781 L 137.472656 102.878906 L 193.773438 102.878906 L 193.773438 90.261719 L 124.859375 90.261719 L 124.859375 215.535156 L 137.472656 215.535156 Z M 137.472656 154.550781" fill-rule="evenodd"/></g><g clip-path="url(#d)"><path fill="#FFF" d="M 237.464844 102.878906 L 237.464844 202.917969 L 181.164062 202.917969 L 181.164062 215.535156 L 250.078125 215.535156 L 250.078125 90.261719 L 237.464844 90.261719 Z M 237.464844 102.878906" fill-rule="evenodd"/></g><g fill="#FFF"><g><g><path d="M 19.421875 -26.375 L 25.84375 -26.375 L 25.84375 0 L 19.421875 0 L 19.421875 -10.9375 L 9.234375 -10.9375 L 9.234375 0 L 2.8125 0 L 2.8125 -26.375 L 9.234375 -26.375 L 9.234375 -15.8125 L 19.421875 -15.8125 Z M 19.421875 -26.375" transform="translate(126.978 263.777)"/></g></g></g><g fill="#FFF"><g><g><path d="M 8.671875 -23.328125 C 7.953125 -22.597656 7.066406 -22.234375 6.015625 -22.234375 C 4.960938 -22.234375 4.070312 -22.597656 3.34375 -23.328125 C 2.613281 -24.054688 2.25 -24.953125 2.25 -26.015625 C 2.25 -27.078125 2.613281 -27.96875 3.34375 -28.6875 C 4.070312 -29.414062 4.960938 -29.78125 6.015625 -29.78125 C 7.066406 -29.78125 7.953125 -29.414062 8.671875 -28.6875 C 9.398438 -27.96875 9.765625 -27.078125 9.765625 -26.015625 C 9.765625 -24.953125 9.398438 -24.054688 8.671875 -23.328125 Z M 2.8125 0 L 2.8125 -20.953125 L 9.234375 -20.953125 L 9.234375 0 Z M 2.8125 0" transform="translate(154.696 263.777)"/></g></g></g><g fill="#FFF"><g><g><path d="M 9.234375 0 L 2.8125 0 L 2.8125 -27.796875 L 9.234375 -27.796875 L 9.234375 -12.203125 L 15.734375 -20.953125 L 24.375 -20.953125 L 15.40625 -10.25 L 24.375 0 L 15.84375 0 L 9.234375 -8.375 Z M 9.234375 0" transform="translate(165.813 263.777)"/></g></g></g><g fill="#FFF"><g><g><path d="M 11.71875 0.265625 C 8.664062 0.265625 6.160156 -0.71875 4.203125 -2.6875 C 2.253906 -4.65625 1.28125 -7.265625 1.28125 -10.515625 C 1.28125 -13.773438 2.25 -16.367188 4.1875 -18.296875 C 6.125 -20.222656 8.632812 -21.1875 11.71875 -21.1875 C 14.800781 -21.1875 17.351562 -20.234375 19.375 -18.328125 C 21.40625 -16.421875 22.421875 -13.78125 22.421875 -10.40625 C 22.421875 -9.675781 22.375 -9 22.28125 -8.375 L 7.84375 -8.375 C 7.96875 -7.445312 8.378906 -6.6875 9.078125 -6.09375 C 9.785156 -5.507812 10.546875 -5.21875 11.359375 -5.21875 C 12.171875 -5.21875 12.773438 -5.296875 13.171875 -5.453125 C 13.578125 -5.617188 13.875 -5.785156 14.0625 -5.953125 C 14.25 -6.117188 14.492188 -6.390625 14.796875 -6.765625 L 21.75 -6.765625 C 21.144531 -4.660156 19.941406 -2.960938 18.140625 -1.671875 C 16.335938 -0.378906 14.195312 0.265625 11.71875 0.265625 Z M 15.734375 -12.390625 C 15.640625 -13.367188 15.210938 -14.164062 14.453125 -14.78125 C 13.703125 -15.394531 12.8125 -15.703125 11.78125 -15.703125 C 10.757812 -15.703125 9.898438 -15.394531 9.203125 -14.78125 C 8.503906 -14.164062 8.066406 -13.367188 7.890625 -12.390625 Z M 15.734375 -12.390625" transform="translate(189.4 263.777)"/></g></g></g><g fill="#FFF"><g><g><path d="M 9.234375 -20.953125 L 9.234375 -17.046875 C 10.742188 -19.804688 12.75 -21.1875 15.25 -21.1875 L 15.25 -14.65625 L 13.671875 -14.65625 C 12.191406 -14.65625 11.082031 -14.300781 10.34375 -13.59375 C 9.601562 -12.894531 9.234375 -11.671875 9.234375 -9.921875 L 9.234375 0 L 2.8125 0 L 2.8125 -20.953125 Z M 9.234375 -20.953125" transform="translate(212.197 263.777)"/></g></g></g><g fill="#FFF"><g><g><path d="M 1.390625 -14.65625 C 1.390625 -16.5 2.175781 -18.046875 3.75 -19.296875 C 5.332031 -20.554688 7.46875 -21.1875 10.15625 -21.1875 C 12.851562 -21.1875 15.023438 -20.570312 16.671875 -19.34375 C 18.328125 -18.113281 19.207031 -16.4375 19.3125 -14.3125 L 12.734375 -14.3125 C 12.660156 -15.039062 12.410156 -15.535156 11.984375 -15.796875 C 11.554688 -16.054688 10.914062 -16.1875 10.0625 -16.1875 C 8.382812 -16.1875 7.546875 -15.675781 7.546875 -14.65625 C 7.546875 -13.726562 8.570312 -13.085938 10.625 -12.734375 C 12.707031 -12.378906 14.597656 -11.84375 16.296875 -11.125 C 17.171875 -10.769531 17.898438 -10.1875 18.484375 -9.375 C 19.078125 -8.5625 19.375 -7.566406 19.375 -6.390625 C 19.375 -4.429688 18.535156 -2.832031 16.859375 -1.59375 C 15.179688 -0.351562 13.066406 0.265625 10.515625 0.265625 C 7.960938 0.265625 5.832031 -0.316406 4.125 -1.484375 C 2.425781 -2.648438 1.503906 -4.375 1.359375 -6.65625 L 7.921875 -6.65625 C 8.097656 -5.375 9 -4.734375 10.625 -4.734375 C 11.375 -4.734375 11.992188 -4.90625 12.484375 -5.25 C 12.972656 -5.601562 13.21875 -6.054688 13.21875 -6.609375 C 13.21875 -7.160156 12.8125 -7.597656 12 -7.921875 C 11.1875 -8.242188 10.203125 -8.519531 9.046875 -8.75 C 7.898438 -8.976562 6.742188 -9.257812 5.578125 -9.59375 C 4.410156 -9.9375 3.421875 -10.523438 2.609375 -11.359375 C 1.796875 -12.203125 1.390625 -13.300781 1.390625 -14.65625 Z M 1.390625 -14.65625" transform="translate(227.183 263.777)"/></g></g></g></svg>