<svg xmlns="http://www.w3.org/2000/svg" width="375" viewBox="0 0 375 375" height="375" version="1.0"><defs><clipPath id="a"><path d="M 232 10.804688 L 263 10.804688 L 263 211 L 232 211 Z M 232 10.804688"/></clipPath><clipPath id="b"><path d="M 113 164 L 144 164 L 144 364.054688 L 113 364.054688 Z M 113 164"/></clipPath><clipPath id="c"><path d="M 39.886719 46 L 203 46 L 203 342 L 39.886719 342 Z M 39.886719 46"/></clipPath><clipPath id="d"><path d="M 172 46 L 335.386719 46 L 335.386719 342 L 172 342 Z M 172 46"/></clipPath></defs><path fill="#7ED957" d="M 172.757812 116.585938 L 183.953125 116.585938 L 183.953125 94.261719 L 191.320312 94.261719 L 191.320312 116.585938 L 202.515625 116.585938 L 202.515625 271.859375 L 191.320312 271.859375 L 191.320312 294.183594 L 183.953125 294.183594 L 183.953125 271.859375 L 172.757812 271.859375 Z M 172.757812 116.585938" fill-rule="evenodd"/><g clip-path="url(#a)"><path fill="#7ED957" d="M 232.269531 33.128906 L 243.460938 33.128906 L 243.460938 10.804688 L 250.832031 10.804688 L 250.832031 33.128906 L 262.027344 33.128906 L 262.027344 188.402344 L 250.832031 188.402344 L 250.832031 210.726562 L 243.460938 210.726562 L 243.460938 188.402344 L 232.269531 188.402344 Z M 232.269531 33.128906" fill-rule="evenodd"/></g><g clip-path="url(#b)"><path fill="#7ED957" d="M 113.25 186.457031 L 124.441406 186.457031 L 124.441406 164.132812 L 131.8125 164.132812 L 131.8125 186.457031 L 143.003906 186.457031 L 143.003906 341.730469 L 131.8125 341.730469 L 131.8125 364.054688 L 124.441406 364.054688 L 124.441406 341.730469 L 113.25 341.730469 Z M 113.25 186.457031" fill-rule="evenodd"/></g><g clip-path="url(#c)"><path fill="#031222" d="M 69.6875 198.105469 L 69.6875 76.425781 L 202.515625 76.425781 L 202.515625 46.710938 L 39.929688 46.710938 L 39.929688 341.730469 L 69.6875 341.730469 Z M 69.6875 198.105469" fill-rule="evenodd"/></g><g clip-path="url(#d)"><path fill="#031222" d="M 305.585938 76.425781 L 305.585938 312.015625 L 172.757812 312.015625 L 172.757812 341.730469 L 335.339844 341.730469 L 335.339844 46.710938 L 305.585938 46.710938 Z M 305.585938 76.425781" fill-rule="evenodd"/></g></svg>