<?xml version="1.0" encoding="UTF-8"?>
<svg xmlns="http://www.w3.org/2000/svg" xmlns:xlink="http://www.w3.org/1999/xlink" width="100px" height="100px" viewBox="0 0 100 100" version="1.1">
<defs>
<clipPath id="clip1">
  <path d="M 61.867188 2.882812 L 70 2.882812 L 70 56.265625 L 61.867188 56.265625 Z M 61.867188 2.882812 "/>
</clipPath>
<clipPath id="clip2">
  <path d="M 30.132812 43.734375 L 38.398438 43.734375 L 38.398438 97.082031 L 30.132812 97.082031 Z M 30.132812 43.734375 "/>
</clipPath>
<clipPath id="clip3">
  <path d="M 10.636719 12.265625 L 54.132812 12.265625 L 54.132812 91.199219 L 10.636719 91.199219 Z M 10.636719 12.265625 "/>
</clipPath>
<clipPath id="clip4">
  <path d="M 46 12.265625 L 89.4375 12.265625 L 89.4375 91.199219 L 46 91.199219 Z M 46 12.265625 "/>
</clipPath>
</defs>
<g id="surface1">
<path style=" stroke:none;fill-rule:evenodd;fill:rgb(49.411765%,85.098039%,34.117647%);fill-opacity:1;" d="M 46.070312 31.089844 L 49.054688 31.089844 L 49.054688 25.136719 L 51.019531 25.136719 L 51.019531 31.089844 L 54.003906 31.089844 L 54.003906 72.496094 L 51.019531 72.496094 L 51.019531 78.449219 L 49.054688 78.449219 L 49.054688 72.496094 L 46.070312 72.496094 Z M 46.070312 31.089844 "/>
<g clip-path="url(#clip1)" clip-rule="nonzero">
<path style=" stroke:none;fill-rule:evenodd;fill:rgb(49.411765%,85.098039%,34.117647%);fill-opacity:1;" d="M 61.9375 8.835938 L 64.921875 8.835938 L 64.921875 2.882812 L 66.886719 2.882812 L 66.886719 8.835938 L 69.875 8.835938 L 69.875 50.242188 L 66.886719 50.242188 L 66.886719 56.195312 L 64.921875 56.195312 L 64.921875 50.242188 L 61.9375 50.242188 Z M 61.9375 8.835938 "/>
</g>
<g clip-path="url(#clip2)" clip-rule="nonzero">
<path style=" stroke:none;fill-rule:evenodd;fill:rgb(49.411765%,85.098039%,34.117647%);fill-opacity:1;" d="M 30.199219 49.722656 L 33.183594 49.722656 L 33.183594 43.769531 L 35.148438 43.769531 L 35.148438 49.722656 L 38.132812 49.722656 L 38.132812 91.128906 L 35.148438 91.128906 L 35.148438 97.082031 L 33.183594 97.082031 L 33.183594 91.128906 L 30.199219 91.128906 Z M 30.199219 49.722656 "/>
</g>
<g clip-path="url(#clip3)" clip-rule="nonzero">
<path style=" stroke:none;fill-rule:evenodd;fill:rgb(100%,100%,100%);fill-opacity:1;" d="M 18.582031 52.828125 L 18.582031 20.378906 L 54.003906 20.378906 L 54.003906 12.457031 L 10.648438 12.457031 L 10.648438 91.128906 L 18.582031 91.128906 Z M 18.582031 52.828125 "/>
</g>
<g clip-path="url(#clip4)" clip-rule="nonzero">
<path style=" stroke:none;fill-rule:evenodd;fill:rgb(100%,100%,100%);fill-opacity:1;" d="M 81.488281 20.378906 L 81.488281 83.203125 L 46.070312 83.203125 L 46.070312 91.128906 L 89.425781 91.128906 L 89.425781 12.457031 L 81.488281 12.457031 Z M 81.488281 20.378906 "/>
</g>
</g>
</svg>
