<svg width="737" height="1017" viewBox="0 0 737 1017" fill="none" xmlns="http://www.w3.org/2000/svg">
<g opacity="0.15">
<path d="M668.341 336.137C667.915 336.254 667.405 336.608 667.064 336.958C666.381 337.55 665.956 338.609 665.783 339.667C665.526 340.963 666.209 342.609 667.148 342.847C667.831 342.964 668.429 343.08 669.449 343.196C672.605 342.725 676.191 342.138 679.684 341.551C680.198 341.434 680.623 341.196 681.049 340.842C681.479 340.492 681.816 339.905 681.989 339.434C682.499 338.138 682.073 335.312 681.222 334.486C680.88 334.137 680.367 333.783 679.856 333.783C676.018 333.783 672.179 335.196 668.341 336.137Z" fill="white"/>
<path d="M730.774 335.666C729.923 335.899 729.24 337.312 729.068 338.725C728.983 339.55 729.497 340.725 729.923 340.963C730.264 341.079 730.521 341.312 730.862 341.312C732.906 341.434 734.954 341.667 736.917 341.783V335.55C734.954 335.428 733.846 335.312 732.653 335.312C732.055 335.312 731.457 335.428 730.774 335.666Z" fill="white"/>
<path d="M614.691 335.079C611.11 335.079 607.528 334.957 603.858 335.079C602.75 335.079 601.642 335.549 600.533 335.899C599.851 336.137 599.341 337.55 599.425 338.608C599.51 339.433 600.108 340.37 600.702 340.492C601.473 340.725 602.324 340.963 603.091 341.079C605.223 341.312 607.355 341.434 609.487 341.667C611.451 341.783 613.414 342.021 615.374 342.137C616.482 342.254 617.08 341.196 617.08 339.55C617.08 338.841 616.996 338.137 616.908 337.55C616.566 336.02 615.631 335.079 614.691 335.079Z" fill="white"/>
<path d="M585.269 336.492C584.671 336.137 584.073 335.666 583.478 335.55C579.724 335.195 575.97 334.841 572.219 334.608C571.621 334.608 570.939 334.724 570.256 334.957C569.489 335.195 568.891 336.254 568.807 337.428C568.638 339.079 569.489 340.725 570.597 340.841C572.561 341.08 574.52 341.196 576.142 341.312C578.616 341.783 580.663 342.138 582.796 342.492C583.478 342.609 584.073 342.138 584.502 341.434C584.928 340.725 585.353 340.021 585.779 339.312C586.293 338.37 586.036 336.957 585.269 336.492Z" fill="white"/>
<path d="M649.151 338.608C649.408 338.021 649.236 337.312 648.894 336.725C648.127 335.428 647.103 334.724 645.911 334.608C642.755 334.486 639.683 334.486 636.527 334.486C635.76 334.486 634.905 334.841 634.138 335.079C633.371 335.312 632.861 336.608 632.861 337.667C632.861 338.841 633.456 340.138 634.226 340.254C635.335 340.492 636.527 340.842 637.636 340.842C640.792 340.842 643.863 340.963 647.188 342.254C648.043 340.842 648.637 339.783 649.151 338.608Z" fill="white"/>
<path d="M695.633 341.55C696.228 341.783 696.91 342.137 697.509 342.137C698.958 342.254 700.492 342.137 701.945 342.137C701.945 342.021 701.945 342.021 701.945 341.905C703.905 341.905 705.868 341.905 707.916 341.905C708.852 341.905 709.366 340.963 709.707 339.783C709.791 339.312 709.96 338.962 709.96 338.491C710.132 336.724 708.936 334.607 707.743 334.724C704.929 334.84 702.114 335.078 699.384 335.311C698.532 335.428 697.766 335.549 696.999 335.899C696.059 336.37 695.292 337.311 694.951 338.724C694.525 339.783 694.867 341.195 695.633 341.55Z" fill="white"/>
<path d="M541 336.608C540.49 336.841 539.976 337.899 540.065 338.725C540.149 339.667 540.318 340.492 541 340.842C541.426 341.08 541.94 341.312 542.365 341.434C544.329 341.667 546.288 341.667 548.252 341.905C548.252 341.905 548.252 341.905 548.252 342.022C549.87 342.022 551.492 341.905 553.199 342.022C554.732 342.138 555.588 340.963 556.354 339.312C556.608 338.608 556.439 337.428 555.929 336.958C554.648 335.899 553.367 334.957 551.833 335.195C548.934 335.55 545.947 335.783 543.048 336.021C542.197 336.021 541.599 336.37 541 336.608Z" fill="white"/>
<path d="M527.951 340.254C527.951 338.841 527.782 337.55 527.268 336.37C526.843 335.311 526.16 334.608 525.221 334.724C524.285 334.84 523.261 335.195 522.322 335.311C520.362 335.549 518.399 335.782 516.439 336.02C515.327 336.137 514.476 337.783 514.644 339.433C514.817 341.434 515.584 342.376 516.865 342.376C518.314 342.376 519.848 342.376 521.298 342.376C521.298 342.254 521.298 342.254 521.298 342.137C523.261 342.021 525.221 341.905 527.184 341.667C527.441 341.667 527.951 340.725 527.951 340.254Z" fill="white"/>
<path d="M493.666 341.783C493.666 341.783 493.666 341.667 493.666 341.783C495.288 341.667 496.906 341.667 498.612 341.667C499.122 341.667 499.552 341.55 500.062 341.312C500.829 341.079 501.937 339.312 501.853 338.37C501.768 337.195 501.086 336.492 500.235 336.021C499.122 335.428 498.102 335.079 496.906 335.195C494.774 335.55 492.642 335.666 490.51 335.899C489.658 336.021 488.888 336.137 488.121 336.37C487.438 336.608 486.844 337.783 486.844 338.963C486.844 340.021 487.611 341.196 488.293 341.312C488.803 341.434 489.229 341.55 489.743 341.55C491.02 341.783 492.385 341.783 493.666 341.783Z" fill="white"/>
<path d="M441.893 341.784C443.173 341.551 444.45 341.313 445.731 341.08C447.012 341.08 448.377 341.08 449.654 341.08C450.337 341.08 451.188 339.905 451.276 338.963C451.361 338.021 451.188 337.196 450.594 336.608C450.252 336.254 449.738 335.783 449.313 335.666C446.582 335.195 443.856 335.312 441.126 336.137C440.869 336.254 440.527 336.492 440.359 336.841C439.761 337.783 439.845 338.841 440.102 340.021C440.359 340.963 441.21 341.905 441.893 341.784Z" fill="white"/>
<path d="M470.208 335.55C467.651 335.783 465.093 336.254 462.535 336.725C461.937 336.841 461.764 337.55 461.68 338.138C461.511 339.667 462.194 340.963 463.13 341.08C464.41 341.196 465.691 341.312 467.735 341.434C468.59 341.312 470.208 341.08 471.83 340.842C472.682 340.725 473.023 339.312 472.682 338.254C472.256 336.725 471.405 335.428 470.208 335.55Z" fill="white"/>
<path d="M458.353 783.493C459.377 783.376 460.229 782.434 460.57 781.138C461.425 778.434 461.252 775.725 460.313 773.137C460.144 772.55 459.63 772.079 459.12 771.957C458.181 771.724 457.157 771.608 456.137 771.608C452.64 771.608 449.142 771.608 445.561 771.608V771.486C441.807 771.37 438.052 771.137 434.302 771.137C433.278 771.137 432.339 771.608 431.315 771.957C430.548 772.195 429.524 774.899 429.608 776.312C429.697 777.492 430.632 779.138 431.399 779.376C432.17 779.609 432.849 779.963 433.62 779.963C440.61 780.789 447.605 781.73 454.515 783.493C455.796 783.731 457.073 783.731 458.353 783.493Z" fill="white"/>
<path d="M301.673 771.137C301.078 770.55 300.311 770.195 299.629 770.079C293.574 769.957 287.772 772.196 281.974 773.725C281.291 773.963 280.609 774.55 279.926 775.021C278.818 775.963 278.22 777.492 277.963 779.255C277.621 781.26 278.645 783.731 280.01 784.081C281.034 784.319 281.974 784.435 283.592 784.673C288.454 783.848 293.911 783.022 299.287 782.08C299.97 781.964 300.737 781.609 301.335 781.022C301.93 780.435 302.443 779.609 302.785 778.784C303.636 776.783 302.953 772.428 301.673 771.137Z" fill="white"/>
<path d="M403.258 773.37C402.829 771.957 401.893 771.369 400.869 771.253C399.588 771.253 398.311 771.369 397.115 771.724C393.618 772.666 390.12 772.666 388.33 772.782C384.491 772.549 382.531 772.311 380.484 772.311C379.46 772.311 378.52 772.666 377.5 772.899C376.22 773.253 375.111 775.37 374.939 777.608C374.854 778.905 375.537 780.788 376.304 781.021C376.818 781.259 377.243 781.609 377.753 781.609C385.089 782.196 392.341 782.789 399.673 783.376C400.186 783.376 400.696 783.26 401.21 783.26C403.17 783.021 404.876 779.846 404.366 777.254C404.025 775.962 403.599 774.666 403.258 773.37Z" fill="white"/>
<path d="M199.75 772.078C194.208 771.957 188.748 771.84 183.207 771.957C181.5 771.957 179.794 772.666 178.087 773.253C177.063 773.608 176.212 775.841 176.381 777.492C176.553 778.783 177.405 780.079 178.344 780.317C179.537 780.667 180.818 781.021 182.01 781.138C185.25 781.492 188.495 781.73 191.735 781.963C194.718 782.196 197.706 782.551 200.773 782.667C202.48 782.789 203.419 781.259 203.335 778.667C203.335 777.608 203.247 776.55 202.994 775.608C202.564 773.608 201.287 772.078 199.75 772.078Z" fill="white"/>
<path d="M154.72 774.195C153.865 773.608 152.929 772.899 151.99 772.782C146.276 772.195 140.474 771.724 134.761 771.37C133.821 771.253 132.801 771.608 131.777 771.84C130.669 772.079 129.729 773.724 129.557 775.608C129.388 778.196 130.581 780.667 132.287 780.905C135.274 781.26 138.258 781.376 140.731 781.609C144.485 782.318 147.726 782.905 150.966 783.376C151.99 783.493 152.929 782.905 153.524 781.725C154.122 780.667 154.805 779.609 155.487 778.55C156.254 777.254 155.913 775.021 154.72 774.195Z" fill="white"/>
<path d="M247.514 771.608C242.736 771.486 237.962 771.37 233.184 771.486C231.991 771.486 230.711 772.079 229.518 772.428C228.322 772.899 227.555 774.783 227.555 776.434C227.643 778.196 228.494 780.196 229.602 780.434C231.309 780.905 233.1 781.26 234.806 781.376C239.58 781.376 244.358 781.492 249.39 783.493C250.67 781.022 251.694 779.492 252.461 777.725C252.887 776.783 252.546 775.725 252.035 774.899C250.927 772.899 249.39 771.608 247.514 771.608Z" fill="white"/>
<path d="M342.102 771.724C337.837 771.957 333.573 772.195 329.225 772.55C327.944 772.666 326.663 772.899 325.555 773.37C324.105 774.079 322.997 775.492 322.399 777.609C321.973 779.254 322.487 781.493 323.595 781.964C324.531 782.434 325.555 782.905 326.494 782.905C328.795 783.022 331.016 782.905 333.316 782.905C333.316 782.789 333.316 782.667 333.316 782.551C336.304 782.551 339.371 782.667 342.359 782.551C343.808 782.551 344.575 781.022 345.001 779.376C345.173 778.783 345.342 778.079 345.43 777.376C345.771 774.783 343.892 771.608 342.102 771.724Z" fill="white"/>
<path d="M109.599 774.899C107.635 773.254 105.676 771.957 103.287 772.195C98.7658 772.666 94.2447 773.021 89.8118 773.492C88.7879 773.608 87.8484 774.079 86.9089 774.428C86.0576 774.666 85.375 776.312 85.375 777.725C85.4594 779.138 85.8007 780.434 86.8245 781.022C87.5071 781.376 88.274 781.725 88.9566 781.847C91.9439 782.08 94.9273 782.318 97.9989 782.434V782.551C100.472 782.551 103.03 782.434 105.503 782.551C107.892 782.789 109.173 781.022 110.281 778.434C110.791 777.492 110.45 775.608 109.599 774.899Z" fill="white"/>
<path d="M62.8586 771.487C61.3247 771.608 59.8752 772.196 58.4257 772.312C55.4385 772.667 52.3707 772.9 49.3835 773.254C47.677 773.492 46.4001 776.08 46.6531 778.551C46.9101 781.493 48.1027 783.139 49.9817 783.139C52.2825 783.139 54.5028 783.139 56.8036 783.139C56.8036 783.022 56.8036 782.906 56.8036 782.79C59.7909 782.551 62.7743 782.319 65.8459 782.197C66.3559 782.197 67.1228 780.668 67.1228 779.964C67.211 777.847 66.8697 775.842 66.0146 773.963C65.2477 772.429 64.2238 771.37 62.8586 771.487Z" fill="white"/>
<path d="M24.5657 773.608C22.8593 772.783 21.2372 772.195 19.4464 772.428C16.206 772.899 12.9657 773.137 9.72537 773.492C8.44457 773.608 7.25198 773.963 5.97118 774.196C4.86295 774.434 4.00781 776.434 4.00781 778.196C4.00781 779.725 5.11988 781.609 6.22811 781.847C6.99505 782.08 7.67763 782.318 8.44457 782.318C10.4923 782.435 12.4518 782.318 14.4996 782.318V782.197C16.973 782.197 19.5307 782.197 22.0041 782.197C22.7749 782.197 23.4575 781.964 24.2244 781.731C25.3326 781.376 27.1235 778.551 26.9509 777.138C26.7822 775.254 25.8427 774.312 24.5657 773.608Z" fill="white"/>
<path d="M685.401 774.312C684.803 773.725 684.12 773.021 683.438 772.899C679.258 772.079 675.078 772.312 670.902 773.608C670.473 773.725 669.963 774.196 669.706 774.667C668.766 776.08 668.939 777.847 669.28 779.493C669.621 781.138 671.071 782.551 672.095 782.318C674.054 781.964 676.018 781.609 677.981 781.26C680.025 781.26 681.988 781.26 683.952 781.26C684.972 781.26 686.337 779.493 686.425 777.963C686.594 776.551 686.253 775.254 685.401 774.312Z" fill="white"/>
<path d="M715.421 772.782C711.499 773.137 707.576 773.962 703.565 774.549C702.629 774.666 702.456 775.841 702.288 776.782C702.031 779.021 703.055 781.137 704.504 781.259C706.464 781.492 708.427 781.608 711.583 781.846C712.948 781.608 715.421 781.259 717.895 780.905C719.172 780.666 719.77 778.666 719.26 776.904C718.577 774.549 717.297 772.666 715.421 772.782Z" fill="white"/>
<path d="M482.575 497.145C481.724 497.261 480.531 498.557 480.359 499.616C480.19 500.674 479.933 501.616 479.933 502.674C479.335 512.326 478.652 521.978 477.375 531.508C477.119 533.159 477.203 534.921 477.375 536.689C477.46 538.101 478.142 539.276 479.082 539.747C481.041 540.927 483.005 540.689 484.88 539.393C485.306 539.16 485.647 538.456 485.731 537.747C485.904 536.45 485.988 535.043 485.988 533.63C485.988 528.804 485.988 523.978 485.988 519.036H486.073C486.161 513.855 486.33 508.675 486.33 503.5C486.33 502.087 485.988 500.79 485.731 499.378C485.478 498.436 483.599 497.023 482.575 497.145Z" fill="white"/>
<path d="M479.081 320.13C479.507 320.955 480.102 321.659 480.7 322.13C482.149 323.188 485.221 322.246 486.245 320.484C486.67 319.659 486.927 318.601 487.012 317.659C487.096 309.303 485.478 301.297 484.37 293.296C484.197 292.354 483.771 291.412 483.43 290.47C482.747 288.941 481.639 288.116 480.358 287.761C478.909 287.29 477.118 288.703 476.861 290.587C476.692 292 476.608 293.296 476.436 295.529C477.034 302.239 477.628 309.774 478.311 317.188C478.399 318.246 478.652 319.304 479.081 320.13Z" fill="white"/>
<path d="M477.375 457.717C477.544 460.421 479.849 462.776 481.724 462.072C482.663 461.717 483.599 461.13 484.539 460.659C485.562 460.066 485.988 458.775 486.072 457.362C486.072 455.595 485.988 453.833 485.731 452.182C485.049 447.356 485.049 442.53 484.964 440.059C485.137 434.762 485.305 432.058 485.305 429.232C485.305 427.819 485.049 426.528 484.88 425.115C484.623 423.348 483.089 421.819 481.467 421.581C480.531 421.464 479.166 422.406 478.994 423.464C478.825 424.173 478.568 424.761 478.568 425.465C478.142 435.587 477.717 445.594 477.287 455.717C477.287 456.304 477.375 457.008 477.375 457.717Z" fill="white"/>
<path d="M482.406 218.326C481.126 218.442 479.676 219.617 479.507 221.146C479.166 223.501 478.909 225.972 478.825 228.327C478.825 234.92 478.74 241.508 477.287 248.456C479.082 250.218 480.19 251.631 481.467 252.689C482.15 253.282 482.916 252.811 483.515 252.102C484.88 250.456 485.819 248.334 485.819 245.747C485.904 239.153 485.988 232.565 485.904 225.972C485.904 224.326 485.478 222.559 485.221 220.913C484.964 219.384 483.599 218.204 482.406 218.326Z" fill="white"/>
<path d="M477.886 376.739C477.886 378.739 478.994 379.803 480.19 380.39C480.616 380.623 481.126 380.861 481.64 380.978C483.599 381.332 485.904 378.861 485.82 376.268C485.647 370.384 485.478 364.5 485.221 358.499C485.137 356.732 484.965 354.964 484.623 353.435C484.113 351.435 483.089 349.905 481.555 349.08C480.359 348.493 478.741 349.202 478.4 350.731C478.058 352.022 477.717 353.435 477.717 354.731C477.629 357.912 477.717 360.97 477.717 364.145C477.801 364.145 477.886 364.145 477.97 364.145C477.801 368.384 477.801 372.622 477.886 376.739Z" fill="white"/>
<path d="M478.142 125.696C478.142 126.405 479.25 127.464 479.764 127.464C481.298 127.58 482.747 127.109 484.112 125.934C485.22 124.992 485.987 123.579 485.903 121.696C485.819 119.579 485.389 117.579 485.305 115.579C485.052 111.456 484.879 107.218 484.622 103.101C484.453 100.746 482.574 98.9789 480.784 99.3335C478.652 99.688 477.459 101.334 477.459 103.927C477.459 107.101 477.459 110.16 477.459 113.34C477.543 113.34 477.628 113.34 477.716 113.34C477.8 117.341 477.969 121.579 478.142 125.696Z" fill="white"/>
<path d="M478.142 54.9638C478.142 58.3769 478.142 61.9064 478.142 65.3194C478.142 66.3778 478.31 67.3197 478.483 68.3833C478.74 69.9125 480.784 72.3837 481.808 72.1456C483.173 71.9128 483.855 70.6163 484.369 68.7325C484.964 66.3778 485.389 64.1447 485.221 61.6735C484.879 57.2022 484.711 52.7255 484.454 48.2541C484.369 46.492 484.112 44.841 483.855 43.0789C483.687 41.5444 482.237 40.3696 480.956 40.3696C479.848 40.3696 478.483 41.8989 478.31 43.4282C478.142 44.4865 477.969 45.4284 477.969 46.492C477.885 49.3124 477.969 52.0217 477.969 54.8474C478.057 54.9638 478.142 54.9638 478.142 54.9638Z" fill="white"/>
<path d="M48.1011 340.963C48.615 339.196 48.5306 337.428 47.9324 335.666C47.7598 335.312 47.4186 334.957 47.1655 334.841C46.5672 334.724 45.8847 334.608 45.2021 334.608C42.9013 334.608 40.5966 334.608 38.2958 334.608C38.2958 334.608 38.2958 334.608 38.2958 334.486C35.8224 334.37 33.349 334.253 30.8756 334.253C30.193 334.253 29.5948 334.486 28.9122 334.724C28.4022 334.957 27.7196 336.608 27.804 337.55C27.8884 338.254 28.4866 339.434 28.9122 339.55C29.4222 339.667 29.8517 339.905 30.3618 339.905C34.9672 340.492 39.4884 341.08 44.0095 342.254C44.7764 342.492 45.6277 342.376 46.4829 342.254C47.3342 342.492 47.848 341.905 48.1011 340.963Z" fill="white"/>
<path d="M9.29496 342.376C10.5758 342.254 11.684 340.138 11.3427 338.492C11.174 337.667 10.917 336.725 10.6601 335.899C10.407 334.957 9.72445 334.608 9.12623 334.486C8.27109 334.486 7.50415 334.608 6.65285 334.841C4.34818 335.55 2.04736 335.428 0.939125 335.55C0.597836 335.55 0.34091 335.55 0.0839844 335.55V341.905C2.8143 342.138 5.54461 342.376 8.27109 342.609C8.61238 342.492 8.95367 342.376 9.29496 342.376Z" fill="white"/>
<path d="M182.267 523.978C182.351 525.269 182.95 526.211 183.801 526.682C185.507 527.745 187.214 527.507 188.92 526.332C189.261 526.094 189.603 525.507 189.687 524.92C189.856 523.74 189.856 522.565 189.856 521.385C189.856 517.151 189.856 512.913 189.856 508.674H189.944C190.028 504.087 190.113 499.615 190.197 495.022C190.197 493.847 189.944 492.667 189.687 491.493C189.515 490.551 187.812 489.376 186.957 489.492C186.19 489.609 185.166 490.667 184.997 491.609C184.825 492.435 184.656 493.376 184.568 494.318C184.058 502.79 183.46 511.146 182.351 519.506C182.094 520.919 182.094 522.565 182.267 523.978Z" fill="white"/>
<path d="M183.885 335.079C184.226 335.783 184.74 336.492 185.338 336.841C186.615 337.783 189.345 336.958 190.112 335.429C190.454 334.725 190.711 333.783 190.711 332.957C190.795 325.66 189.345 318.718 188.406 311.654C188.322 310.833 187.896 310.008 187.555 309.182C186.956 307.891 186.021 307.182 184.909 306.833C183.632 306.362 182.094 307.653 181.925 309.304C181.841 310.479 181.753 311.654 181.584 313.659C182.094 319.543 182.608 326.015 183.206 332.608C183.29 333.428 183.547 334.37 183.885 335.079Z" fill="white"/>
<path d="M182.352 455.123C182.436 457.478 184.484 459.6 186.106 459.007C186.957 458.658 187.724 458.187 188.58 457.716C189.515 457.124 189.856 456.065 189.856 454.774C189.856 453.24 189.772 451.71 189.603 450.297C189.005 446.064 189.005 441.826 188.921 439.709C189.09 435.116 189.174 432.761 189.174 430.29C189.174 429.115 189.005 427.935 188.833 426.76C188.58 425.231 187.299 423.818 185.849 423.702C184.998 423.58 183.886 424.406 183.717 425.348C183.633 425.935 183.376 426.528 183.376 427.115C182.95 435.941 182.609 444.651 182.268 453.478C182.268 453.949 182.352 454.536 182.352 455.123Z" fill="white"/>
<path d="M187.212 216.796C188.578 216.325 189.513 214.674 189.513 212.79C189.513 206.202 189.601 199.493 189.601 192.899C189.601 190.783 189.172 188.782 188.831 186.782C188.578 185.486 187.212 184.544 186.189 184.782C185.422 184.898 184.566 185.957 184.398 187.137C184.225 188.666 183.972 190.079 183.884 191.608C183.631 195.492 183.546 199.376 183.374 203.377C183.205 207.023 183.033 210.557 182.948 214.203C182.864 216.325 183.884 217.383 185.506 217.267C185.932 217.145 186.614 217.029 187.212 216.796Z" fill="white"/>
<path d="M183.374 157.356C184.057 158.065 184.655 158.89 185.422 159.711C186.273 160.652 187.638 160.182 188.152 158.769C188.494 157.71 188.919 156.536 189.004 155.477C189.345 148.529 189.686 141.703 189.943 134.761C190.028 133.586 189.771 132.406 189.602 131.231C189.429 129.935 188.405 128.76 187.213 128.522C185.591 128.289 183.973 129.818 183.884 131.819C183.716 135.465 183.547 138.999 183.459 142.058C183.033 146.529 182.692 150.413 182.35 154.297C182.266 155.477 182.607 156.536 183.374 157.356Z" fill="white"/>
<path d="M186.022 276.348C186.616 276.819 187.299 276.465 187.813 275.877C189.005 274.464 189.772 272.581 189.856 270.347C189.945 264.58 190.029 258.812 189.945 253.16C189.945 251.631 189.603 250.218 189.346 248.805C189.09 247.393 187.897 246.451 186.789 246.451C185.68 246.572 184.4 247.631 184.227 248.927C183.974 251.044 183.717 253.044 183.633 255.161C183.633 260.928 183.548 266.58 182.268 272.697C183.886 274.231 184.91 275.406 186.022 276.348Z" fill="white"/>
<path d="M182.776 384.507C182.776 386.274 183.715 387.1 184.824 387.687C185.249 387.92 185.679 388.036 186.104 388.158C187.811 388.507 189.855 386.274 189.77 384.036C189.602 378.861 189.429 373.68 189.26 368.622C189.172 367.087 189.088 365.558 188.746 364.145C188.321 362.383 187.381 361.086 186.104 360.383C184.996 359.79 183.715 360.499 183.374 361.795C183.117 362.97 182.776 364.145 182.776 365.325C182.691 368.029 182.776 370.738 182.776 373.564C182.864 373.564 182.864 373.564 182.948 373.564C182.776 377.21 182.691 380.861 182.776 384.507Z" fill="white"/>
<path d="M188.832 0.704064C189.005 0.58765 189.174 0.354821 189.346 0.116699H182.777C183.034 0.471235 183.376 0.825771 183.717 1.0586C185.508 2.11692 187.214 1.88409 188.832 0.704064Z" fill="white"/>
<path d="M189.771 1012.64C189.771 1008.41 189.771 1004.17 189.771 999.935H189.855C189.943 995.341 190.028 990.87 190.112 986.282C190.112 985.102 189.855 983.927 189.602 982.753C189.429 981.811 187.723 980.631 186.872 980.747C186.105 980.869 185.081 981.927 184.908 982.869C184.74 983.695 184.567 984.631 184.483 985.573C183.973 994.05 183.374 1002.41 182.266 1010.76C182.094 1012.17 182.094 1013.82 182.266 1015.23C182.351 1015.94 182.523 1016.53 182.776 1017H189.345C189.429 1016.77 189.602 1016.53 189.602 1016.3C189.771 1015.12 189.771 1013.82 189.771 1012.64Z" fill="white"/>
<path d="M189.005 930.964C189.174 926.376 189.262 924.021 189.262 921.55C189.262 920.37 189.089 919.195 188.92 918.021C188.663 916.486 187.383 915.079 185.933 914.957C185.082 914.84 183.974 915.666 183.801 916.608C183.717 917.195 183.46 917.782 183.46 918.37C183.034 927.196 182.693 935.906 182.352 944.738C182.352 945.325 182.436 945.913 182.436 946.5C182.524 948.855 184.568 950.971 186.19 950.384C187.041 950.029 187.812 949.558 188.663 949.087C189.603 948.5 189.944 947.442 189.944 946.145C189.944 944.616 189.856 943.087 189.687 941.674C189.005 937.319 189.089 933.086 189.005 930.964Z" fill="white"/>
<path d="M182.776 875.767C182.776 877.529 183.715 878.355 184.824 878.942C185.249 879.18 185.679 879.297 186.104 879.413C187.811 879.768 189.855 877.529 189.77 875.296C189.602 870.116 189.429 864.941 189.26 859.877C189.172 858.347 189.088 856.818 188.746 855.405C188.321 853.638 187.381 852.347 186.104 851.638C184.996 851.05 183.715 851.754 183.374 853.051C183.117 854.231 182.776 855.405 182.776 856.58C182.691 859.289 182.776 861.993 182.776 864.819C182.864 864.819 182.864 864.819 182.948 864.819C182.776 868.47 182.691 872.116 182.776 875.767Z" fill="white"/>
<path d="M185.424 105.218C186.106 105.805 187.299 105.334 187.725 104.398C188.749 102.043 189.604 99.688 189.431 96.7459C189.174 91.3326 188.921 85.9194 188.58 80.5008C188.495 79.326 188.239 78.1513 187.982 76.9713C187.813 75.913 186.789 75.0875 185.934 75.2092C184.998 75.3256 184.227 75.7966 183.802 76.9713C183.549 77.7968 183.292 78.6223 183.292 79.5642C183.119 83.2101 183.035 86.7395 182.866 90.3907H182.778C182.778 93.4493 182.866 96.3914 182.778 99.4499C182.694 102.276 183.802 103.927 185.424 105.218Z" fill="white"/>
<path d="M183.034 51.5504C183.034 52.1378 183.973 53.0797 184.483 53.0797C185.848 53.0797 187.129 52.7251 188.237 51.7832C189.173 50.963 189.856 49.6666 189.771 48.0209C189.687 46.2535 189.346 44.4861 189.261 42.6076C189.004 38.9564 188.832 35.3105 188.663 31.7757C188.579 29.7755 186.872 28.1298 185.338 28.4844C183.459 28.8336 182.436 30.2465 182.436 32.4848C182.436 35.1888 182.436 37.8981 182.436 40.6021C182.524 40.6021 182.608 40.6021 182.692 40.6021C182.777 44.2533 182.865 47.8992 183.034 51.5504Z" fill="white"/>
<path d="M542.963 166.187C543.987 166.066 544.838 165.124 545.179 163.833C546.031 161.123 545.862 158.419 544.922 155.826C544.754 155.239 544.24 154.768 543.73 154.652C542.79 154.414 541.766 154.297 540.742 154.297C537.249 154.297 533.752 154.297 530.166 154.297V154.181C526.416 154.064 522.662 153.826 518.911 153.826C517.888 153.826 516.948 154.297 515.924 154.652C515.157 154.884 514.133 157.594 514.218 159.007C514.302 160.181 515.242 161.832 516.009 162.065C516.776 162.303 517.458 162.653 518.229 162.653C525.22 163.478 532.214 164.42 539.124 166.187C540.401 166.537 541.682 166.42 542.963 166.187Z" fill="#F0D4CE"/>
<path d="M386.029 163.711C386.623 163.123 387.137 162.303 387.478 161.478C388.245 159.477 387.563 155.239 386.282 153.826C385.688 153.239 384.921 152.884 384.238 152.768C378.179 152.651 372.381 154.884 366.583 156.413C365.901 156.652 365.218 157.239 364.535 157.71C363.427 158.652 362.829 160.181 362.572 161.948C362.231 163.949 363.255 166.42 364.62 166.774C365.644 167.007 366.583 167.124 368.201 167.362C373.064 166.536 378.521 165.716 383.897 164.774C384.664 164.652 385.431 164.182 386.029 163.711Z" fill="#F0D4CE"/>
<path d="M460.912 163.833C461.426 164.066 461.852 164.421 462.362 164.421C469.697 165.008 476.949 165.595 484.281 166.188C484.795 166.188 485.305 166.066 485.819 166.066C487.778 165.833 489.485 162.653 488.975 160.066C488.718 158.769 488.292 157.478 487.951 156.182C487.525 154.769 486.586 154.181 485.562 154.065C484.281 154.065 483.004 154.181 481.807 154.536C478.31 155.478 474.813 155.478 473.022 155.594C469.187 155.356 467.224 155.123 465.176 155.123C464.152 155.123 463.217 155.478 462.193 155.711C460.912 156.065 459.804 158.182 459.631 160.42C459.463 161.711 460.145 163.479 460.912 163.833Z" fill="#F0D4CE"/>
<path d="M276.429 164.775C279.412 165.007 282.399 165.362 285.471 165.478C287.174 165.595 288.113 164.065 288.029 161.478C288.029 160.42 287.944 159.356 287.687 158.419C287.262 156.297 285.897 154.885 284.359 154.768C278.818 154.652 273.357 154.535 267.812 154.652C266.11 154.652 264.403 155.356 262.697 155.943C261.673 156.297 260.821 158.536 260.99 160.181C261.163 161.478 262.014 162.774 262.954 163.007C264.146 163.362 265.427 163.711 266.62 163.833C269.948 164.182 273.188 164.42 276.429 164.775Z" fill="#F0D4CE"/>
<path d="M216.98 163.595C219.967 163.949 222.951 164.066 225.424 164.304C229.178 165.008 232.419 165.595 235.659 166.066C236.683 166.188 237.622 165.595 238.221 164.42C238.815 163.362 239.498 162.304 240.18 161.24C240.947 159.949 240.521 157.711 239.413 156.885C238.562 156.298 237.622 155.594 236.683 155.478C230.969 154.885 225.171 154.414 219.454 154.065C218.518 153.943 217.494 154.298 216.47 154.536C215.362 154.769 214.422 156.414 214.254 158.298C213.997 160.891 215.274 163.479 216.98 163.595Z" fill="#F0D4CE"/>
<path d="M314.296 163.124C316.003 163.595 317.793 163.949 319.5 164.066C324.278 164.066 329.052 164.182 334.083 166.187C335.364 163.711 336.388 162.182 337.155 160.42C337.581 159.478 337.239 158.419 336.729 157.594C335.537 155.71 333.999 154.414 332.124 154.414C327.346 154.297 322.571 154.181 317.793 154.297C316.601 154.297 315.32 154.885 314.127 155.239C312.931 155.71 312.164 157.594 312.164 159.24C312.337 160.891 313.188 162.774 314.296 163.124Z" fill="#F0D4CE"/>
<path d="M408.289 164.653C409.225 165.124 410.249 165.595 411.188 165.595C413.493 165.716 415.709 165.595 418.01 165.595C418.01 165.478 418.01 165.362 418.01 165.245C420.997 165.245 424.069 165.362 427.052 165.245C428.502 165.245 429.269 163.711 429.698 162.065C429.867 161.478 430.04 160.769 430.124 160.065C430.377 157.356 428.586 154.181 426.711 154.297C422.447 154.535 418.183 154.768 413.834 155.123C412.553 155.239 411.273 155.477 410.164 155.943C408.715 156.652 407.607 158.065 407.008 160.181C406.667 162.065 407.093 164.182 408.289 164.653Z" fill="#F0D4CE"/>
<path d="M134.501 165.95C136.806 165.95 139.022 165.95 141.327 165.95C141.327 165.833 141.327 165.717 141.327 165.595C144.31 165.362 147.297 165.124 150.365 165.008C150.879 165.008 151.646 163.479 151.646 162.775C151.73 160.653 151.389 158.653 150.538 156.769C149.855 155.24 148.831 154.181 147.466 154.298C145.932 154.414 144.483 155.007 143.033 155.123C140.046 155.478 136.974 155.711 133.991 156.065C132.284 156.298 131.007 158.891 131.261 161.362C131.517 164.421 132.626 165.95 134.501 165.95Z" fill="#F0D4CE"/>
<path d="M90.8359 164.653C91.6029 164.891 92.2854 165.124 93.0524 165.124C95.1001 165.245 97.0596 165.124 99.1074 165.124V165.007C101.581 165.007 104.139 165.007 106.612 165.007C107.383 165.007 108.061 164.774 108.832 164.536C109.94 164.182 111.731 161.361 111.559 159.948C111.39 158.065 110.45 157.123 109.085 156.414C107.383 155.593 105.761 155.006 103.97 155.239C100.729 155.71 97.4853 155.943 94.245 156.297C92.968 156.414 91.7716 156.768 90.4946 157.123C89.3826 157.356 88.5312 159.356 88.5312 161.123C88.6156 162.536 89.7238 164.303 90.8359 164.653Z" fill="#F0D4CE"/>
<path d="M17.4873 157.356C16.5478 158.769 16.7165 160.536 17.0578 162.182C17.3991 163.833 18.8486 165.246 19.8724 165.008C21.8358 164.653 23.7954 164.304 25.7587 163.949C27.8065 163.949 29.766 163.949 31.7294 163.949C32.7532 163.949 34.1184 162.182 34.2028 160.653C34.3715 159.24 34.034 157.949 33.1789 157.007C32.5807 156.414 31.8981 155.71 31.2194 155.594C27.0395 154.768 22.8597 155.007 18.6799 156.298C18.2542 156.414 17.8285 156.885 17.4873 157.356Z" fill="#F0D4CE"/>
<path d="M63.1988 155.477C59.2759 155.827 55.353 156.536 51.3457 157.239C50.4062 157.356 50.2337 158.536 50.065 159.478C49.808 161.711 50.8319 163.833 52.2814 163.949C54.2448 164.182 56.2043 164.304 59.3603 164.536C60.7255 164.304 63.1988 163.949 65.6722 163.595C66.953 163.362 67.5512 161.362 67.0374 159.594C66.2704 157.239 64.9896 155.356 63.1988 155.477Z" fill="#F0D4CE"/>
<path d="M722.075 603.42C721.136 603.187 720.112 603.066 719.088 603.066C715.591 603.066 712.094 603.066 708.512 603.066V602.949C704.762 602.833 701.008 602.595 697.253 602.595C696.229 602.595 695.294 603.066 694.27 603.42C693.503 603.658 692.479 606.362 692.563 607.775C692.648 608.95 693.587 610.601 694.354 610.834C695.121 611.072 695.804 611.426 696.571 611.426C703.565 612.247 710.56 613.188 717.47 614.956C718.663 615.305 719.943 615.189 721.22 614.956C722.244 614.839 723.099 613.898 723.441 612.601C724.292 609.892 724.119 607.188 723.184 604.595C723.011 604.008 722.501 603.537 722.075 603.42Z" fill="#F0D4CE"/>
<path d="M564.628 602.716C564.03 602.123 563.263 601.774 562.58 601.652C556.525 601.536 550.727 603.774 544.925 605.304C544.242 605.536 543.56 606.129 542.877 606.6C541.769 607.542 541.175 609.071 540.918 610.833C540.576 612.833 541.6 615.305 542.965 615.659C543.989 615.897 544.925 616.014 546.547 616.246C551.409 615.426 556.866 614.601 562.239 613.659C562.921 613.542 563.692 613.188 564.286 612.601C564.885 612.013 565.395 611.188 565.736 610.362C566.503 608.246 565.909 604.007 564.628 602.716Z" fill="#F0D4CE"/>
<path d="M666.124 604.95C665.698 603.537 664.759 602.949 663.735 602.833C662.458 602.833 661.177 602.949 659.985 603.304C656.487 604.246 652.99 604.246 651.199 604.362C647.361 604.129 645.397 603.891 643.35 603.891C642.33 603.891 641.39 604.246 640.366 604.479C639.085 604.833 637.977 606.95 637.808 609.188C637.72 610.485 638.403 612.363 639.174 612.601C639.684 612.834 640.109 613.189 640.623 613.189C647.955 613.776 655.207 614.369 662.542 614.956C663.052 614.956 663.566 614.84 664.076 614.84C666.04 614.601 667.746 611.427 667.232 608.834C666.975 607.543 666.55 606.246 666.124 604.95Z" fill="#F0D4CE"/>
<path d="M441.21 611.893C442.406 612.247 443.683 612.602 444.88 612.718C448.12 613.073 451.36 613.305 454.601 613.544C457.588 613.776 460.571 614.131 463.643 614.247C465.349 614.369 466.285 612.835 466.201 610.247C466.201 609.189 466.116 608.13 465.859 607.188C465.434 605.066 464.069 603.659 462.535 603.537C456.99 603.421 451.529 603.304 445.988 603.421C444.281 603.421 442.575 604.13 440.869 604.717C439.845 605.066 438.993 607.305 439.162 608.95C439.419 610.247 440.274 611.66 441.21 611.893Z" fill="#F0D4CE"/>
<path d="M395.24 612.363C398.223 612.718 401.21 612.834 403.684 613.072C407.434 613.776 410.678 614.369 413.919 614.84C414.943 614.956 415.878 614.369 416.476 613.189C417.075 612.13 417.757 611.072 418.44 610.014C419.207 608.717 418.781 606.479 417.669 605.659C416.818 605.066 415.878 604.362 414.942 604.246C409.225 603.659 403.427 603.188 397.713 602.833C396.774 602.717 395.75 603.066 394.726 603.304C393.618 603.537 392.682 605.188 392.509 607.072C392.253 609.776 393.533 612.247 395.24 612.363Z" fill="#F0D4CE"/>
<path d="M510.469 603.066C505.691 602.95 500.913 602.833 496.139 602.95C494.947 602.95 493.666 603.537 492.473 603.891C491.277 604.362 490.51 606.246 490.51 607.892C490.594 609.659 491.449 611.66 492.558 611.892C494.264 612.363 496.055 612.718 497.761 612.834C502.535 612.834 507.313 612.956 512.345 614.956C513.625 612.485 514.645 610.956 515.416 609.188C515.842 608.246 515.501 607.188 514.987 606.363C513.794 604.362 512.345 603.188 510.469 603.066Z" fill="#F0D4CE"/>
<path d="M589.448 614.485C591.749 614.601 593.965 614.485 596.27 614.485C596.27 614.368 596.27 614.246 596.27 614.13C599.253 614.13 602.325 614.246 605.312 614.13C606.762 614.13 607.529 612.601 607.954 610.955C608.127 610.362 608.296 609.659 608.38 608.95C608.637 606.246 606.846 603.065 604.971 603.187C600.703 603.42 596.439 603.658 592.09 604.007C590.809 604.129 589.532 604.362 588.424 604.833C586.975 605.536 585.863 606.949 585.268 609.071C584.839 610.717 585.353 612.955 586.461 613.426C587.485 613.897 588.509 614.485 589.448 614.485Z" fill="#F0D4CE"/>
<path d="M329.908 611.543C329.993 609.421 329.652 607.421 328.796 605.537C328.114 604.008 327.094 602.949 325.729 603.066C324.191 603.188 322.741 603.775 321.292 603.891C318.308 604.246 315.237 604.479 312.25 604.833C310.547 605.066 309.266 607.659 309.523 610.13C309.776 613.072 310.973 614.718 312.848 614.718C315.152 614.718 317.369 614.718 319.674 614.718C319.674 614.602 319.674 614.485 319.674 614.369C322.657 614.131 325.64 613.898 328.712 613.776C329.138 613.776 329.908 612.247 329.908 611.543Z" fill="#F0D4CE"/>
<path d="M284.958 613.776C285.725 613.776 286.407 613.543 287.174 613.305C288.286 612.955 290.077 610.13 289.904 608.717C289.736 606.833 288.796 605.891 287.431 605.187C285.725 604.362 284.106 603.775 282.316 604.007C279.071 604.478 275.831 604.717 272.591 605.066C271.31 605.187 270.117 605.537 268.836 605.775C267.728 606.008 266.877 608.008 266.877 609.775C266.877 611.305 267.985 613.188 269.093 613.426C269.86 613.659 270.543 613.897 271.31 613.897C273.358 614.014 275.321 613.897 277.369 613.897V613.776C279.926 613.776 282.4 613.776 284.958 613.776Z" fill="#F0D4CE"/>
<path d="M211.438 605.891C210.84 605.304 210.158 604.595 209.475 604.479C205.295 603.658 201.115 603.891 196.935 605.188C196.51 605.304 196 605.775 195.743 606.246C194.803 607.659 194.976 609.421 195.317 611.072C195.658 612.718 197.108 614.13 198.132 613.898C200.091 613.543 202.055 613.188 204.018 612.834C206.062 612.834 208.025 612.834 209.985 612.834C211.009 612.834 212.374 611.072 212.458 609.543C212.631 608.008 212.29 606.717 211.438 605.891Z" fill="#F0D4CE"/>
<path d="M228.322 608.362C228.069 610.601 229.092 612.717 230.542 612.834C232.502 613.072 234.465 613.188 237.621 613.426C238.986 613.188 241.459 612.834 243.933 612.484C245.21 612.246 245.808 610.246 245.298 608.479C244.615 606.007 243.25 604.129 241.459 604.362C237.537 604.716 233.61 605.537 229.602 606.129C228.751 606.246 228.494 607.42 228.322 608.362Z" fill="#F0D4CE"/>
<path d="M711.669 937.319C711.071 936.731 710.304 936.377 709.621 936.26C703.566 936.144 697.768 938.377 691.966 939.911C691.283 940.144 690.601 940.732 689.918 941.203C688.81 942.144 688.216 943.674 687.959 945.441C687.617 947.441 688.641 949.913 690.006 950.267C691.03 950.5 691.966 950.622 693.588 950.854C698.45 950.029 703.907 949.209 709.28 948.267C709.962 948.145 710.729 947.796 711.327 947.209C711.926 946.616 712.436 945.796 712.777 944.97C713.632 942.97 713.034 938.731 711.669 937.319Z" fill="#F0D4CE"/>
<path d="M609.745 938.261C604.2 938.145 598.743 938.028 593.198 938.145C591.491 938.145 589.789 938.849 588.082 939.441C587.058 939.791 586.203 942.029 586.376 943.675C586.545 944.971 587.4 946.267 588.335 946.5C589.532 946.855 590.809 947.209 592.005 947.326C595.245 947.68 598.486 947.913 601.726 948.146C604.713 948.384 607.697 948.739 610.768 948.855C612.475 948.971 613.414 947.442 613.326 944.855C613.326 943.796 613.242 942.733 612.985 941.791C612.644 939.791 611.278 938.378 609.745 938.261Z" fill="#F0D4CE"/>
<path d="M564.798 940.384C563.943 939.791 563.008 939.087 562.068 938.971C556.354 938.378 550.552 937.907 544.839 937.558C543.899 937.436 542.875 937.791 541.855 938.029C540.743 938.262 539.808 939.913 539.635 941.791C539.466 944.384 540.659 946.855 542.365 947.088C545.353 947.443 548.336 947.559 550.809 947.797C554.564 948.501 557.804 949.088 561.044 949.559C562.068 949.681 563.008 949.088 563.602 947.914C564.2 946.855 564.883 945.797 565.565 944.733C566.332 943.442 565.907 941.204 564.798 940.384Z" fill="#F0D4CE"/>
<path d="M657.594 937.79C652.816 937.674 648.042 937.557 643.264 937.674C642.072 937.674 640.791 938.261 639.598 938.616C638.402 939.087 637.635 940.97 637.635 942.616C637.719 944.383 638.574 946.384 639.683 946.616C641.389 947.087 643.18 947.442 644.886 947.558C649.66 947.558 654.438 947.68 659.47 949.68C660.75 947.209 661.774 945.675 662.541 943.912C662.967 942.971 662.626 941.912 662.116 941.087C660.919 939.087 659.47 937.79 657.594 937.79Z" fill="#F0D4CE"/>
<path d="M732.479 943.912C732.054 945.558 732.564 947.796 733.676 948.267C734.612 948.738 735.635 949.209 736.575 949.209C736.744 949.209 736.832 949.209 737.001 949.209V939.086C736.491 939.203 736.061 939.319 735.551 939.557C734.102 940.261 732.993 941.674 732.479 943.912Z" fill="#F0D4CE"/>
<path d="M6.48066 949.209C6.48066 949.088 6.48066 948.971 6.48066 948.855C9.4679 948.855 12.5395 948.971 15.5229 948.855C16.9724 948.855 17.7394 947.325 18.1689 945.674C18.3376 945.087 18.5063 944.383 18.5945 943.674C18.8476 940.97 17.0568 937.79 15.1816 937.906C10.9174 938.145 6.65322 938.377 2.30466 938.732C1.53388 938.848 0.766942 938.848 0 939.086V949.209C2.21646 949.326 4.34856 949.209 6.48066 949.209Z" fill="#F0D4CE"/>
<path d="M509.529 937.79C507.995 937.907 506.542 938.499 505.093 938.616C502.109 938.97 499.038 939.203 496.054 939.558C494.348 939.79 493.067 942.383 493.324 944.855C493.581 947.797 494.773 949.442 496.649 949.442C498.953 949.442 501.17 949.442 503.474 949.442C503.474 949.326 503.474 949.209 503.474 949.088C506.458 948.855 509.445 948.617 512.513 948.5C513.027 948.5 513.794 946.971 513.794 946.267C513.878 944.145 513.537 942.145 512.685 940.261C511.918 938.732 510.895 937.557 509.529 937.79Z" fill="#F0D4CE"/>
<path d="M471.232 939.79C469.525 938.97 467.907 938.377 466.116 938.616C462.876 939.087 459.632 939.319 456.391 939.674C455.114 939.79 453.918 940.145 452.641 940.383C451.529 940.616 450.678 942.616 450.678 944.383C450.678 945.913 451.786 947.797 452.894 948.029C453.661 948.267 454.344 948.5 455.114 948.5C457.158 948.617 459.122 948.5 461.17 948.5V948.384C463.643 948.384 466.201 948.384 468.674 948.384C469.441 948.384 470.124 948.151 470.89 947.913C471.999 947.558 473.793 944.733 473.621 943.325C473.452 941.558 472.513 940.499 471.232 939.79Z" fill="#F0D4CE"/>
<path d="M425.261 939.086C421.338 939.44 417.416 940.26 413.404 940.853C412.469 940.97 412.296 942.144 412.127 943.086C411.871 945.325 412.894 947.441 414.344 947.558C416.307 947.796 418.267 947.912 421.423 948.145C422.788 947.912 425.261 947.558 427.735 947.208C429.016 946.97 429.61 944.97 429.1 943.203C428.417 940.731 427.052 938.848 425.261 939.086Z" fill="#F0D4CE"/>
<path d="M74.884 951.913C74.2015 952.03 73.2658 952.971 73.1814 953.797C73.0089 954.622 72.8401 955.326 72.8401 956.152C72.4106 963.682 71.9006 971.217 70.7924 978.63C70.6198 979.927 70.708 981.34 70.7924 982.631C70.8768 983.694 71.3868 984.631 72.1576 985.102C73.6914 986.044 75.2253 985.811 76.6748 984.753C77.0161 984.515 77.2731 983.927 77.3574 983.456C77.53 982.398 77.53 981.34 77.53 980.281C77.53 976.514 77.53 972.746 77.53 968.978C77.53 968.978 77.53 968.978 77.6143 968.978C77.6987 964.978 77.7869 960.861 77.7869 956.855C77.7869 955.797 77.53 954.739 77.3574 953.681C77.1887 952.855 75.6548 951.797 74.884 951.913Z" fill="#F0D4CE"/>
<path d="M75.4822 790.906C74.9722 789.731 74.117 789.144 73.0932 788.789C71.9006 788.435 70.5354 789.493 70.3667 791.028C70.2785 792.086 70.1941 793.144 70.0254 794.912C70.451 800.087 70.9611 805.971 71.4749 811.739C71.5593 812.564 71.728 813.39 72.0693 813.977C72.4106 814.565 72.8401 815.152 73.3501 815.507C74.4583 816.332 76.9317 815.623 77.6143 814.21C77.9556 813.623 78.2125 812.797 78.2125 811.977C78.2969 805.5 77.0161 799.267 76.1648 793.028C76.1648 792.319 75.8235 791.615 75.4822 790.906Z" fill="#F0D4CE"/>
<path d="M70.8773 921.196C70.9617 923.312 72.7525 925.196 74.2902 924.609C75.0572 924.376 75.7397 923.905 76.5067 923.434C77.358 922.963 77.6993 921.905 77.6993 920.841C77.6993 919.55 77.6149 918.137 77.4462 916.841C76.9323 913.073 76.9323 909.311 76.848 907.427C76.9323 903.305 77.1049 901.188 77.1049 899.072C77.1049 898.008 76.9323 896.95 76.7636 895.891C76.5911 894.479 75.3985 893.304 74.1177 893.066C73.3507 892.949 72.3269 893.775 72.1581 894.479C72.0699 894.95 71.8168 895.537 71.8168 896.008C71.4755 903.898 71.1343 911.666 70.793 919.55C70.793 920.021 70.793 920.608 70.8773 921.196Z" fill="#F0D4CE"/>
<path d="M75.1419 708.289C76.3345 707.818 77.1896 706.405 77.1896 704.754C77.1896 698.87 77.274 692.869 77.1896 686.985C77.1896 685.101 76.764 683.333 76.5071 681.45C76.3345 680.275 75.0575 679.449 74.118 679.688C73.4355 679.804 72.6685 680.746 72.4998 681.804C72.3272 683.101 72.0703 684.392 72.0703 685.805C71.9016 689.339 71.729 692.752 71.5603 696.282C71.3877 699.457 71.219 702.754 71.1346 705.934C71.0464 707.818 71.9859 708.759 73.4355 708.638C74.0337 708.638 74.6319 708.521 75.1419 708.289Z" fill="#F0D4CE"/>
<path d="M71.7277 655.203C72.3259 655.912 72.9241 656.616 73.5185 657.325C74.2893 658.151 75.5662 657.68 75.9957 656.5C76.3332 655.558 76.6745 654.5 76.7627 653.558C77.104 647.441 77.3571 641.202 77.614 635.079C77.614 634.021 77.4453 632.963 77.3571 631.904C77.1883 630.724 76.2488 629.666 75.225 629.55C73.7754 629.312 72.3259 630.724 72.2416 632.492C72.069 635.667 71.9846 638.963 71.8159 641.551C71.4746 645.557 71.1333 649.086 70.792 652.499C70.7077 653.558 71.0451 654.5 71.7277 655.203Z" fill="#F0D4CE"/>
<path d="M74.0333 761.485C74.5433 761.956 75.1415 761.601 75.6554 761.014C76.7636 759.718 77.4462 758.072 77.4462 756.072C77.5306 750.891 77.5306 745.832 77.5306 740.652C77.5306 739.356 77.1893 738.064 77.0167 736.768C76.7636 735.472 75.7397 734.651 74.7159 734.651C73.692 734.768 72.5838 735.71 72.4994 736.884C72.2425 738.768 71.9856 740.652 71.9856 742.419C71.9856 747.595 71.9012 752.659 70.793 758.072C72.1581 759.601 73.0938 760.659 74.0333 761.485Z" fill="#F0D4CE"/>
<path d="M71.2179 858.109C71.2179 859.644 72.0692 860.464 73.0087 860.935C73.35 861.173 73.7756 861.289 74.1169 861.406C75.6546 861.76 77.4454 859.76 77.3572 857.76C77.1885 853.167 77.1042 848.579 76.9316 843.986C76.8472 842.695 76.7629 841.282 76.4216 839.985C75.9959 838.456 75.2251 837.281 74.0325 836.689C73.093 836.218 71.9004 836.689 71.5592 837.985C71.3022 839.043 71.0453 840.102 71.0453 841.165C70.9609 843.637 71.0453 845.991 71.0453 848.462C71.1335 848.462 71.1335 848.462 71.2179 848.462C71.2179 851.637 71.1335 854.818 71.2179 858.109Z" fill="#F0D4CE"/>
<path d="M73.5179 608.717C74.1161 609.188 75.14 608.833 75.5656 608.008C76.5051 605.891 77.2721 603.775 77.1033 601.182C76.8464 596.361 76.5895 591.535 76.3326 586.709C76.2482 585.651 75.9951 584.587 75.8225 583.529C75.6538 582.587 74.7143 581.883 74.0317 581.883C73.1804 582 72.4979 582.354 72.1566 583.529C71.8996 584.238 71.7271 585.058 71.7271 585.884C71.5583 589.064 71.474 592.355 71.3858 595.536H71.3014C71.3014 598.24 71.3858 600.949 71.3014 603.658C71.1327 606.129 72.1566 607.542 73.5179 608.717Z" fill="#F0D4CE"/>
<path d="M77.0163 552.812C76.7632 549.637 76.675 546.34 76.4219 543.16C76.3337 541.398 74.8842 539.985 73.4347 540.218C71.7283 540.572 70.877 541.747 70.877 543.747C70.877 546.224 70.877 548.573 70.877 551.044C70.9613 551.044 71.0457 551.044 71.0457 551.044C71.1339 554.224 71.3026 557.521 71.387 560.696C71.387 561.283 72.2421 562.109 72.6678 562.109C73.8604 562.109 75.0568 561.754 76.0807 560.934C76.932 560.225 77.5302 559.05 77.4458 557.637C77.4458 555.992 77.1045 554.457 77.0163 552.812Z" fill="#F0D4CE"/>
<path d="M73.4347 1011.7C71.7283 1012.06 70.877 1013.23 70.877 1015.23C70.877 1015.83 70.877 1016.41 70.877 1017H76.5907C76.5063 1016.17 76.5063 1015.47 76.4219 1014.65C76.3337 1012.88 74.8842 1011.47 73.4347 1011.7Z" fill="#F0D4CE"/>
<path d="M71.7277 109.811C72.3259 110.514 72.9241 111.223 73.5185 111.927C74.2893 112.753 75.5662 112.282 75.9957 111.102C76.3332 110.16 76.6745 109.102 76.7627 108.16C77.104 102.043 77.3571 95.8038 77.614 89.6815C77.614 88.6231 77.4453 87.5648 77.3571 86.5065C77.1883 85.3265 76.2488 84.2682 75.225 84.1518C73.7754 83.9136 72.3259 85.3265 72.2416 87.0939C72.069 90.2741 71.9846 93.5655 71.8159 96.1584C71.4746 100.159 71.1333 103.688 70.792 107.101C70.7077 108.16 71.0451 109.102 71.7277 109.811Z" fill="#F0D4CE"/>
<path d="M73.5179 63.3185C74.1161 63.7894 75.14 63.4349 75.5656 62.6147C76.5051 60.4928 77.2721 58.3761 77.1033 55.7886C76.8464 50.9626 76.5895 46.1367 76.3326 41.3108C76.2482 40.2525 75.9951 39.1942 75.8225 38.1305C75.6538 37.1886 74.7143 36.4849 74.0317 36.4849C73.1804 36.6013 72.4979 36.9558 72.1566 38.1305C71.8996 38.8396 71.7271 39.6651 71.7271 40.4853C71.5583 43.6655 71.474 46.9622 71.3858 50.1371H71.3014C71.3014 52.8464 71.3858 55.5504 71.3014 58.2597C71.1327 60.7309 72.1566 62.1437 73.5179 63.3185Z" fill="#F0D4CE"/>
<path d="M71.0457 5.65169C71.1339 8.82664 71.3026 12.1233 71.387 15.2982C71.387 15.8909 72.2421 16.7111 72.6678 16.7111C73.8604 16.7111 75.0568 16.3619 76.0807 15.5364C76.932 14.8273 77.5302 13.6526 77.4458 12.2397C77.3576 10.594 77.1045 9.06476 76.932 7.41379C76.8476 5.05904 76.675 2.58787 76.5907 0.116699H70.877C70.877 2.0005 70.877 3.76789 70.877 5.65169C70.9613 5.65169 71.0457 5.65169 71.0457 5.65169Z" fill="#F0D4CE"/>
<path d="M648.553 78.0298C649.32 77.9134 650.344 76.855 650.517 75.9131C650.685 75.0876 650.858 74.1457 650.942 73.2038C651.452 64.732 652.05 56.3766 653.159 48.0212C653.331 46.6084 653.331 44.9574 653.159 43.5445C653.074 42.2534 652.476 41.3115 651.625 40.8405C649.918 39.7822 648.212 40.015 646.505 41.1951C646.164 41.4279 645.823 42.0153 645.739 42.6079C645.57 43.7826 645.57 44.9574 645.57 46.1374C645.57 50.376 645.57 54.6092 645.57 58.8478H645.482C645.397 63.4356 645.313 67.9123 645.229 72.5001C645.229 73.6748 645.482 74.8548 645.739 76.0295C645.995 76.9715 647.618 78.1515 648.553 78.0298Z" fill="#F0D4CE"/>
<path d="M647.87 258.34C648.469 259.637 649.408 260.341 650.516 260.695C651.793 261.166 653.331 259.87 653.5 258.224C653.584 257.044 653.672 255.869 653.841 253.869C653.331 247.985 652.817 241.508 652.223 234.92C652.135 234.094 651.882 233.152 651.54 232.449C651.199 231.74 650.685 231.036 650.091 230.681C648.81 229.739 646.08 230.565 645.313 232.094C644.971 232.798 644.714 233.74 644.714 234.565C644.63 241.862 646.08 248.805 647.019 255.869C647.103 256.695 647.445 257.515 647.87 258.34Z" fill="#F0D4CE"/>
<path d="M652.989 112.515C652.904 110.16 650.857 108.043 649.235 108.631C648.383 108.985 647.613 109.456 646.761 109.927C645.822 110.515 645.48 111.573 645.48 112.869C645.48 114.399 645.569 115.928 645.737 117.341C646.336 121.579 646.336 125.818 646.42 127.935C646.251 132.522 646.163 134.877 646.163 137.348C646.163 138.528 646.336 139.703 646.504 140.883C646.761 142.412 648.042 143.825 649.492 143.942C650.343 144.058 651.451 143.233 651.624 142.291C651.708 141.703 651.965 141.116 651.965 140.529C652.391 131.702 652.732 122.992 653.073 114.166C653.158 113.695 653.073 113.102 652.989 112.515Z" fill="#F0D4CE"/>
<path d="M645.91 354.848C645.91 361.442 645.822 368.151 645.822 374.739C645.822 376.856 646.252 378.861 646.593 380.862C646.846 382.153 648.211 383.095 649.235 382.862C650.002 382.745 650.857 381.682 651.026 380.507C651.199 378.978 651.452 377.565 651.54 376.036C651.793 372.152 651.881 368.268 652.05 364.267C652.222 360.616 652.391 357.087 652.475 353.435C652.564 351.319 651.54 350.26 649.918 350.377C649.235 350.377 648.637 350.493 647.954 350.731C646.846 351.319 645.91 352.964 645.91 354.848Z" fill="#F0D4CE"/>
<path d="M652.051 410.283C651.369 409.579 650.771 408.754 650.092 407.928C649.237 406.986 647.871 407.457 647.361 408.87C647.02 409.928 646.595 411.108 646.506 412.167C646.165 419.109 645.824 425.935 645.571 432.883C645.482 434.058 645.739 435.233 645.912 436.413C646.081 437.709 647.105 438.884 648.297 439.117C649.919 439.355 651.541 437.825 651.626 435.825C651.794 432.174 651.967 428.645 652.051 425.586C652.477 421.109 652.818 417.225 653.16 413.341C653.16 412.167 652.734 411.108 652.051 410.283Z" fill="#F0D4CE"/>
<path d="M651.71 312.478C651.71 306.711 651.794 301.064 653.075 294.942C651.541 293.413 650.517 292.238 649.409 291.296C648.811 290.825 648.128 291.175 647.618 291.767C646.422 293.175 645.655 295.059 645.57 297.297C645.482 303.065 645.398 308.833 645.482 314.479C645.482 316.008 645.823 317.421 646.08 318.834C646.337 320.246 647.53 321.188 648.638 321.188C649.75 321.072 651.027 320.014 651.2 318.717C651.453 316.717 651.71 314.6 651.71 312.478Z" fill="#F0D4CE"/>
<path d="M652.649 183.131C652.649 181.369 651.71 180.544 650.602 179.956C650.176 179.718 649.75 179.602 649.321 179.485C647.614 179.131 645.571 181.369 645.655 183.602C645.824 188.783 645.996 193.963 646.165 199.022C646.253 200.551 646.337 202.081 646.679 203.493C647.104 205.261 648.044 206.552 649.321 207.261C650.429 207.848 651.71 207.145 652.051 205.848C652.308 204.673 652.649 203.493 652.649 202.319C652.734 199.609 652.649 196.905 652.649 194.08C652.565 194.08 652.565 194.08 652.477 194.08C652.649 190.428 652.734 186.783 652.649 183.131Z" fill="#F0D4CE"/>
<path d="M650.002 462.421C649.32 461.834 648.127 462.304 647.701 463.246C646.678 465.601 645.822 467.956 645.995 470.898C646.252 476.311 646.505 481.725 646.846 487.138C646.934 488.318 647.188 489.493 647.444 490.667C647.617 491.731 648.637 492.551 649.492 492.435C650.428 492.318 651.199 491.847 651.624 490.667C651.881 489.847 652.134 489.022 652.134 488.08C652.307 484.434 652.391 480.899 652.564 477.253H652.648C652.648 474.189 652.564 471.247 652.648 468.189C652.733 465.247 651.624 463.717 650.002 462.421Z" fill="#F0D4CE"/>
<path d="M646.078 524.92C646.335 528.565 646.504 532.217 646.676 535.746C646.76 537.746 648.467 539.392 650.001 539.043C651.88 538.688 652.904 537.275 652.904 535.042C652.904 532.333 652.904 529.624 652.904 526.92C652.816 526.92 652.731 526.92 652.647 526.92C652.474 523.269 652.39 519.739 652.221 516.093C652.221 515.5 651.282 514.559 650.768 514.559C649.406 514.559 648.126 514.913 647.017 515.855C646.078 516.681 645.395 517.972 645.48 519.623C645.652 521.385 645.994 523.152 646.078 524.92Z" fill="#F0D4CE"/>
<path d="M122.991 472.073C122.393 471.84 121.71 471.602 121.028 471.485C114.888 470.776 108.833 469.956 102.774 468.427C101.754 468.189 100.558 468.189 99.5341 468.427C98.5984 468.543 97.9158 469.369 97.5745 470.543C96.8076 472.898 96.9763 475.253 97.8276 477.608C98.0002 478.073 98.4258 478.544 98.8515 478.666C99.7066 478.899 100.558 478.899 101.413 478.899C104.481 478.899 107.552 478.899 110.624 478.899V479.015C113.949 479.137 117.189 479.253 120.518 479.37C121.369 479.37 122.224 479.015 123.075 478.666C123.758 478.428 124.609 476.073 124.525 474.898C124.441 473.84 123.585 472.311 122.991 472.073Z" fill="#F0D4CE"/>
<path d="M255.105 467.956C254.253 467.834 253.402 467.718 251.949 467.485C247.685 468.189 242.995 468.898 238.22 469.718C237.622 469.84 236.94 470.189 236.426 470.66C235.916 471.131 235.406 471.84 235.149 472.66C234.466 474.427 235.065 478.195 236.173 479.253C236.683 479.724 237.365 480.079 237.964 480.079C243.252 480.195 248.283 478.195 253.402 476.899C253.996 476.782 254.595 476.195 255.193 475.724C256.129 474.898 256.642 473.602 256.899 472.073C257.152 470.311 256.301 468.189 255.105 467.956Z" fill="#F0D4CE"/>
<path d="M171.094 470.543C170.668 470.427 170.242 470.072 169.817 470.072C163.417 469.485 157.109 469.014 150.708 468.543C150.283 468.543 149.857 468.659 149.431 468.659C147.725 468.776 146.191 471.602 146.617 473.84C146.874 475.015 147.211 476.073 147.552 477.253C147.982 478.544 148.749 479.015 149.685 479.015C150.797 479.015 151.905 478.899 152.929 478.666C155.996 477.84 159.068 477.84 160.602 477.724C163.93 477.957 165.637 478.073 167.428 478.073C168.279 478.073 169.134 477.84 169.985 477.607C171.094 477.253 172.118 475.486 172.202 473.485C172.375 472.427 171.776 470.776 171.094 470.543Z" fill="#F0D4CE"/>
<path d="M281.718 468.543C280.61 470.66 279.755 472.072 279.072 473.602C278.731 474.427 278.988 475.369 279.413 476.073C280.437 477.724 281.802 478.782 283.424 478.899C287.604 479.015 291.78 479.137 295.876 479.015C296.984 479.015 298.008 478.544 299.032 478.195C300.056 477.84 300.738 476.195 300.738 474.66C300.654 473.131 299.883 471.369 298.947 471.131C297.41 470.776 295.96 470.427 294.426 470.31C290.246 470.31 286.067 470.31 281.718 468.543Z" fill="#F0D4CE"/>
<path d="M216.979 469.717C216.128 469.368 215.273 468.897 214.421 468.897C212.458 468.775 210.499 468.897 208.451 468.897C208.451 469.013 208.451 469.013 208.451 469.13C205.809 469.13 203.163 469.013 200.521 469.13C199.24 469.13 198.642 470.426 198.216 471.955C198.047 472.543 197.959 473.13 197.875 473.723C197.618 476.072 199.24 478.898 200.862 478.782C204.612 478.543 208.366 478.311 212.032 478.072C213.141 477.956 214.253 477.84 215.273 477.369C216.554 476.781 217.493 475.485 218.003 473.723C218.429 472.072 218.003 470.188 216.979 469.717Z" fill="#F0D4CE"/>
<path d="M274.554 285.762C272.848 285.762 271.141 286.471 269.435 287.059C268.411 287.413 267.56 289.646 267.728 291.297C267.901 292.588 268.752 293.885 269.692 294.118C270.884 294.472 272.165 294.827 273.358 294.943C276.598 295.298 279.842 295.53 283.083 295.769C286.066 296.001 289.053 296.356 292.121 296.472C293.828 296.594 294.767 295.059 294.683 292.472C294.683 291.414 294.594 290.355 294.341 289.413C293.912 287.291 292.551 285.884 291.013 285.762C285.556 285.762 280.095 285.529 274.554 285.762Z" fill="#CAD1AE"/>
<path d="M242.826 295.529C243.934 295.529 244.701 294.709 245.211 293.413C245.725 292.238 246.323 291.058 246.833 289.883C247.432 288.47 246.833 286.232 245.641 285.645C244.701 285.174 243.677 284.703 242.738 284.819C237.024 285.29 231.226 285.761 225.512 286.47C224.573 286.587 223.549 287.058 222.61 287.528C221.501 287.999 220.734 289.762 220.734 291.645C220.734 294.238 222.268 296.471 223.975 296.355C226.962 296.122 229.945 295.767 232.419 295.529C236.342 295.529 239.582 295.651 242.826 295.529Z" fill="#CAD1AE"/>
<path d="M140.903 286.349C139.197 286.349 137.747 288.825 137.916 291.413C138.088 294.471 139.108 296.122 140.987 296.239C143.204 296.472 145.508 296.71 147.725 296.826C147.725 296.71 147.725 296.593 147.725 296.472C150.708 296.593 153.696 296.593 156.767 296.71C157.277 296.71 158.128 295.297 158.217 294.588C158.385 292.471 158.129 290.354 157.446 288.471C156.852 286.82 155.828 285.645 154.463 285.761C152.929 285.761 151.479 286.116 149.941 286.232C146.958 286.349 143.886 286.349 140.903 286.349Z" fill="#CAD1AE"/>
<path d="M529.06 913.073C528.635 912.131 527.868 911.544 527.101 911.311C526.161 910.956 524.969 911.898 524.796 913.194C524.712 914.136 524.627 914.957 524.539 916.369C524.88 920.724 525.31 925.667 525.735 930.493C525.82 931.202 525.992 931.789 526.246 932.376C526.502 932.964 526.928 933.435 527.269 933.673C528.209 934.377 530.257 933.789 530.851 932.615C531.108 932.144 531.365 931.435 531.365 930.731C531.365 925.317 530.341 920.137 529.658 914.84C529.574 914.253 529.317 913.544 529.06 913.073Z" fill="#CAD1AE"/>
<path d="M530.342 1003.7C530.342 1002.76 530.169 1001.93 530.085 1000.99C529.916 999.817 528.892 998.875 527.868 998.637C527.27 998.521 526.419 999.225 526.246 999.817C526.162 1000.29 525.993 1000.64 525.993 1001.11C525.736 1006.41 525.564 1011.7 525.311 1017H530.426C530.169 1014.41 530.169 1012.06 530.169 1010.76C530.257 1007.23 530.342 1005.46 530.342 1003.7Z" fill="#CAD1AE"/>
<path d="M528.806 843.753C529.826 843.399 530.509 842.108 530.509 840.811C530.509 835.869 530.597 830.927 530.509 825.863C530.509 824.333 530.167 822.804 529.914 821.275C529.742 820.333 528.718 819.624 527.951 819.746C527.353 819.862 526.674 820.687 526.586 821.508C526.417 822.566 526.244 823.746 526.16 824.804C525.991 827.746 525.903 830.689 525.734 833.631C525.65 836.34 525.477 839.044 525.393 841.753C525.309 843.283 526.076 844.108 527.268 844.108C527.866 843.986 528.292 843.87 528.806 843.753Z" fill="#CAD1AE"/>
<path d="M530.596 779.493C530.424 778.434 529.657 777.609 528.806 777.493C527.609 777.254 526.417 778.434 526.332 779.964C526.16 782.668 526.075 785.377 525.991 787.615C525.65 791.028 525.393 793.849 525.136 796.791C525.051 797.733 525.393 798.558 525.903 799.146C526.417 799.733 526.927 800.326 527.441 800.913C528.035 801.617 529.147 801.268 529.488 800.204C529.741 799.384 530.083 798.558 530.167 797.733C530.424 792.558 530.681 787.377 530.85 782.197C530.85 781.26 530.681 780.435 530.596 779.493Z" fill="#CAD1AE"/>
<path d="M527.867 888.361C528.292 888.711 528.806 888.478 529.232 888.007C530.167 886.949 530.681 885.536 530.766 883.885C530.85 879.53 530.85 875.296 530.85 870.941C530.85 869.883 530.597 868.703 530.424 867.645C530.256 866.587 529.316 865.877 528.549 865.877C527.694 865.877 526.758 866.703 526.674 867.761C526.501 869.291 526.245 870.941 526.245 872.471C526.245 876.826 526.16 881.064 525.221 885.652C526.333 886.71 527.015 887.536 527.867 888.361Z" fill="#CAD1AE"/>
<path d="M529.826 954.152C529.489 952.855 528.806 951.797 527.782 951.326C527.011 950.971 525.991 951.326 525.734 952.384C525.562 953.21 525.309 954.152 525.309 954.977C525.221 956.977 525.309 959.094 525.309 961.094C525.393 961.094 525.393 961.094 525.477 961.094C525.477 963.803 525.477 966.507 525.477 969.333C525.477 970.63 526.16 971.333 527.011 971.804C527.353 971.921 527.61 972.159 527.951 972.159C529.232 972.392 530.766 970.746 530.681 969.1C530.597 965.216 530.424 961.332 530.256 957.565C530.256 956.385 530.083 955.21 529.826 954.152Z" fill="#CAD1AE"/>
<path d="M527.442 760.189C527.952 760.543 528.807 760.305 529.148 759.601C529.915 757.834 530.598 756.072 530.425 753.95C530.168 749.95 530 745.833 529.827 741.832C529.743 740.89 529.574 740.065 529.401 739.239C529.233 738.536 528.466 737.827 527.867 737.948C527.185 738.065 526.587 738.298 526.334 739.239C526.161 739.827 525.992 740.536 525.904 741.123C525.735 743.833 525.735 746.537 525.563 749.246C525.563 749.246 525.563 749.246 525.478 749.246C525.478 751.479 525.563 753.717 525.478 756.072C525.394 757.956 526.245 759.13 527.442 760.189Z" fill="#CAD1AE"/>
<path d="M529.914 705.224C529.826 703.695 528.633 702.52 527.441 702.753C525.991 702.991 525.309 704.05 525.309 705.812C525.309 707.817 525.309 709.934 525.309 711.934C525.393 711.934 525.393 711.934 525.477 711.934C525.562 714.643 525.65 717.347 525.819 720.057C525.819 720.528 526.501 721.231 526.927 721.231C527.951 721.231 528.89 720.999 529.742 720.289C530.424 719.702 531.022 718.76 530.938 717.464C530.85 716.173 530.597 714.76 530.508 713.463C530.167 710.638 530.083 707.934 529.914 705.224Z" fill="#CAD1AE"/>
<path d="M363.937 1008.17C364.021 1001.46 364.278 994.754 364.278 988.044C364.278 986.282 363.852 984.515 363.595 982.752C363.339 981.34 360.865 979.572 359.5 979.81C358.392 979.927 356.858 981.572 356.601 982.985C356.348 984.282 356.091 985.573 356.007 986.869C355.408 996.992 354.726 1006.99 353.533 1017H363.768C363.768 1014.06 363.768 1011.12 363.768 1008.17C363.852 1008.17 363.852 1008.17 363.937 1008.17Z" fill="#CAD1AE"/>
<path d="M360.44 712.761C359.501 710.76 358.14 709.818 356.517 709.231C354.554 708.522 352.253 710.406 351.996 712.877C351.828 714.644 351.739 716.406 351.486 719.232C352.253 727.826 353.02 737.594 353.96 747.246C354.044 748.537 354.385 749.833 354.895 751.008C355.409 752.072 356.176 753.008 357.027 753.601C358.906 755.014 362.914 753.834 364.195 751.479C364.705 750.537 365.13 749.008 365.13 747.833C365.218 737.123 363.171 726.767 361.721 716.29C361.549 714.994 360.954 713.819 360.44 712.761Z" fill="#CAD1AE"/>
<path d="M362.571 906.014C362.743 899.188 362.997 895.659 362.997 892.007C362.997 890.24 362.743 888.478 362.487 886.711C362.145 884.477 360.182 882.356 358.138 882.123C356.942 882.006 355.235 883.181 354.894 884.477C354.725 885.298 354.384 886.123 354.384 887.065C353.786 900.13 353.276 913.073 352.762 926.138C352.762 927.08 352.85 927.905 352.85 928.847C353.019 932.377 356.006 935.435 358.479 934.494C359.756 934.023 360.953 933.319 362.145 932.615C363.51 931.79 364.109 930.139 364.109 928.26C364.109 926.022 364.02 923.783 363.679 921.55C362.655 915.312 362.655 909.073 362.571 906.014Z" fill="#CAD1AE"/>
<path d="M359.928 575.529C361.888 574.703 363.253 572.348 363.253 569.644C363.337 559.755 363.425 549.986 363.337 540.102C363.337 537.043 362.655 533.979 362.145 530.921C361.803 529.037 359.756 527.624 358.222 527.979C357.025 528.217 355.748 529.746 355.576 531.392C355.235 533.63 354.893 535.747 354.809 537.985C354.468 543.747 354.299 549.637 353.958 555.4C353.701 560.696 353.444 566.11 353.275 571.407C353.191 574.47 354.64 576.116 357.025 576C358.049 576 358.989 575.878 359.928 575.529Z" fill="#CAD1AE"/>
<path d="M354.212 487.492C355.236 488.667 356.176 489.847 357.199 490.905C358.48 492.202 360.524 491.609 361.295 489.493C361.889 487.963 362.488 486.196 362.572 484.55C363.086 474.311 363.511 464.072 363.937 453.833C364.021 452.065 363.68 450.298 363.511 448.536C363.254 446.535 361.721 444.885 360.014 444.652C357.625 444.297 355.236 446.535 355.067 449.594C354.81 454.891 354.554 460.304 354.385 464.659C353.787 471.369 353.192 477.137 352.763 482.899C352.594 484.667 353.192 486.196 354.212 487.492Z" fill="#CAD1AE"/>
<path d="M358.138 663.797C358.99 664.506 360.014 663.914 360.78 663.094C362.571 660.972 363.768 658.268 363.768 654.971C363.852 646.499 363.936 637.906 363.936 629.434C363.936 627.195 363.426 625.079 362.997 622.957C362.571 620.957 360.865 619.427 359.247 619.544C357.625 619.66 355.749 621.311 355.492 623.195C355.067 626.254 354.725 629.312 354.641 632.492C354.553 640.964 354.469 649.441 352.678 658.5C354.982 660.622 356.516 662.384 358.138 663.797Z" fill="#CAD1AE"/>
<path d="M353.361 824.1C353.445 826.688 354.81 827.984 356.348 828.921C356.942 829.275 357.541 829.514 358.223 829.63C360.781 830.217 363.768 826.804 363.596 823.508C363.339 815.861 363.17 808.21 362.829 800.674C362.744 798.441 362.572 796.203 362.062 794.086C361.464 791.499 360.098 789.493 358.051 788.557C356.432 787.731 354.469 788.673 353.959 790.673C353.533 792.319 353.104 794.086 353.02 795.854C352.851 799.854 352.935 803.971 352.935 807.972C353.02 807.972 353.104 807.972 353.192 807.972C353.361 813.39 353.276 818.682 353.361 824.1Z" fill="#CAD1AE"/>
<path d="M357.284 410.283C358.308 411.109 360.015 410.521 360.697 408.987C362.231 405.574 363.512 401.928 363.255 397.689C362.829 389.688 362.488 381.682 361.974 373.565C361.89 371.798 361.464 370.03 361.123 368.385C360.866 366.855 359.332 365.559 358.051 365.675C356.686 365.797 355.493 366.501 354.895 368.268C354.554 369.443 354.213 370.739 354.128 372.036C353.875 377.449 353.703 382.746 353.534 388.159H353.446C353.446 392.631 353.618 397.102 353.446 401.573C353.277 405.928 354.895 408.399 357.284 410.283Z" fill="#CAD1AE"/>
<path d="M353.787 330.602C353.787 331.544 355.236 332.957 355.919 332.957C357.882 333.073 359.842 332.486 361.548 331.073C362.998 329.898 364.022 328.015 363.853 325.543C363.68 322.834 363.255 320.247 363.086 317.543C362.745 312.124 362.488 306.832 362.147 301.414C361.974 298.472 359.501 296 357.2 296.471C354.385 296.942 352.936 299.064 352.936 302.477C352.936 306.478 352.936 310.595 352.936 314.6C353.02 314.6 353.104 314.6 353.277 314.6C353.361 320.014 353.534 325.311 353.787 330.602Z" fill="#CAD1AE"/>
<path d="M20.2134 485.492C22.1767 484.667 23.5419 482.312 23.5419 479.608C23.6262 469.718 23.7106 459.95 23.6263 450.065C23.6263 447.006 22.9437 443.943 22.4337 440.884C22.0924 439 20.0446 437.587 18.5069 437.942C17.3143 438.175 16.0335 439.709 15.8648 441.355C15.5235 443.593 15.1822 445.71 15.0979 447.948C14.7566 453.711 14.584 459.6 14.2427 465.363C13.9896 470.66 13.7327 476.073 13.5601 481.37C13.4758 484.434 14.9253 486.079 17.3143 485.963C18.3382 485.963 19.3621 485.841 20.2134 485.492Z" fill="#CAD1AE"/>
<path d="M23.7947 358.5C23.5416 356.499 22.0039 354.848 20.3012 354.616C17.9122 354.261 15.5232 356.499 15.3545 359.558C15.0975 364.855 14.8406 370.268 14.6719 374.623C14.0737 381.333 13.4755 387.101 13.0498 392.863C12.8811 394.747 13.4755 396.276 14.5837 397.456C15.6076 398.631 16.5471 399.811 17.5709 400.869C18.8479 402.16 20.8956 401.573 21.6626 399.456C22.2608 397.927 22.859 396.16 22.9434 394.514C23.4572 384.275 23.8829 374.036 24.3085 363.796C24.3929 362.029 24.0516 360.262 23.7947 358.5Z" fill="#CAD1AE"/>
<path d="M18.4216 573.761C19.2768 574.47 20.3006 573.878 21.0676 573.057C22.8584 570.935 24.051 568.231 24.051 564.935C24.1354 556.463 24.2236 547.869 24.2236 539.392C24.2236 537.159 23.7097 535.043 23.2841 532.921C22.8584 530.921 21.152 529.391 19.5299 529.508C17.9116 529.624 16.0326 531.275 15.7795 533.159C15.3539 536.217 15.0126 539.276 14.9244 542.456C14.84 550.928 14.7557 559.405 12.9648 568.464C15.3539 570.586 16.8034 572.348 18.4216 573.761Z" fill="#CAD1AE"/>
<path d="M17.5699 320.246C18.5937 321.072 20.3002 320.484 20.9828 318.95C22.5166 315.537 23.7936 311.891 23.5405 307.652C23.1149 299.651 22.7736 291.645 22.2597 283.528C22.1753 281.76 21.7497 279.993 21.4084 278.347C21.1515 276.818 19.6176 275.522 18.3368 275.638C16.9716 275.76 15.779 276.464 15.1808 278.231C14.8395 279.406 14.4983 280.702 14.4139 281.999C14.157 287.412 13.9882 292.709 13.8157 298.122H13.7313C13.7313 302.593 13.9 307.065 13.7313 311.536C13.5587 315.891 15.1808 318.362 17.5699 320.246Z" fill="#CAD1AE"/>
<path d="M23.3692 227.506C23.0279 222.088 22.7749 216.796 22.4336 211.378C22.261 208.436 19.7876 205.964 17.4868 206.435C14.6721 206.906 13.2188 209.028 13.2188 212.441C13.2188 216.442 13.2188 220.559 13.2188 224.559C13.3069 224.559 13.3913 224.559 13.56 224.559C13.7326 229.856 13.9895 235.274 14.1583 240.566C14.1583 241.508 15.6078 242.921 16.2904 242.921C18.2537 243.037 20.2133 242.45 21.9197 241.037C23.3692 239.862 24.3931 237.978 24.2244 235.507C23.9674 232.798 23.5418 230.21 23.3692 227.506Z" fill="#CAD1AE"/>
<path d="M352.592 13.8904C352.761 15.7689 353.532 17.1818 354.809 17.8908C357.366 19.4201 359.928 19.0656 362.313 17.4199C362.827 17.0653 363.337 16.1234 363.425 15.298C363.678 13.5359 363.678 11.7685 363.678 10.0064C363.678 6.70973 363.678 3.41307 363.678 0H353.444C353.19 2.35475 352.849 4.70951 352.592 7.18068C352.335 9.41372 352.42 11.7685 352.592 13.8904Z" fill="#CAD1AE"/>
<path d="M526.245 58.9644C527.526 59.6734 528.806 59.5517 530.083 58.7315C530.34 58.4934 530.597 58.0225 530.682 57.6732C530.766 56.8477 530.85 55.9058 530.85 54.9639C530.85 51.7837 530.85 48.6087 530.85 45.4285C530.85 45.4285 530.85 45.4285 530.939 45.4285C531.023 42.0154 531.107 38.6024 531.107 35.1893C531.107 34.2474 530.939 33.4272 530.766 32.4853C530.597 31.7762 529.401 30.8343 528.718 30.956C528.208 31.0724 527.353 31.8979 527.269 32.4853C527.184 33.1891 527.016 33.7764 527.016 34.4855C526.586 40.8407 526.161 47.0795 525.309 53.3182C525.137 54.3766 525.221 55.5513 525.309 56.7313C525.137 57.906 525.562 58.6098 526.245 58.9644Z" fill="#CAD1AE"/>
<path d="M525.221 5.41357C525.31 7.18096 526.844 8.71023 528.036 8.23928C528.634 8.00116 529.317 7.65191 529.915 7.29738C530.598 6.94284 530.851 6.00094 530.939 5.18074C530.939 4.00072 530.851 2.9424 530.682 1.76767C530.598 1.17502 530.51 0.704064 530.51 0.116699H525.394C525.31 1.41314 525.31 2.70957 525.221 4.00072C525.137 4.47167 525.137 4.94262 525.221 5.41357Z" fill="#CAD1AE"/>
<path d="M561.47 95.0949C562.325 95.333 563.177 95.333 564.028 95.333C567.1 95.333 570.171 95.333 573.243 95.333V95.4495C576.568 95.5659 579.808 95.6876 583.136 95.804C583.988 95.804 584.839 95.4495 585.694 95.0949C586.377 94.8621 587.228 92.5073 587.144 91.3326C587.059 90.2743 586.292 88.8614 585.61 88.6233C585.012 88.3905 584.329 88.1524 583.646 88.036C577.507 87.3269 571.452 86.5067 565.393 84.9774C564.369 84.7393 563.177 84.7393 562.153 84.9774C561.217 85.0938 560.535 85.9193 560.193 87.0941C559.423 89.4488 559.595 91.8036 560.446 94.1583C560.619 94.5076 561.045 94.9785 561.47 95.0949Z" fill="#CAD1AE"/>
<path d="M700.583 96.6296C705.871 96.746 710.903 94.7458 716.018 93.4494C716.616 93.333 717.215 92.7456 717.813 92.2746C718.748 91.4491 719.262 90.1527 719.515 88.6234C719.857 86.8613 718.921 84.7394 717.725 84.5066C716.873 84.3849 716.018 84.2685 714.569 84.0356C710.304 84.7394 705.615 85.4485 700.836 86.2687C700.242 86.3904 699.56 86.7396 699.046 87.2106C698.536 87.6815 698.022 88.3906 697.769 89.2108C697.086 90.9782 697.681 94.7458 698.793 95.8041C699.303 96.2751 699.985 96.6296 700.583 96.6296Z" fill="#CAD1AE"/>
<path d="M634.905 90.0366C634.993 88.8618 634.395 87.3273 633.712 87.0945C633.286 86.978 632.861 86.6235 632.431 86.6235C626.035 86.0361 619.723 85.5652 613.327 85.0942C612.901 85.0942 612.475 85.2107 612.05 85.2107C610.343 85.3271 608.805 88.1528 609.235 90.3911C609.488 91.5658 609.829 92.6242 610.171 93.8042C610.6 95.0953 611.367 95.5663 612.303 95.5663C613.415 95.5663 614.523 95.4499 615.547 95.217C618.615 94.3915 621.686 94.3915 623.22 94.2751C626.549 94.508 628.255 94.6244 630.046 94.6244C630.897 94.6244 631.752 94.3915 632.604 94.1534C633.796 93.8042 634.736 92.0368 634.905 90.0366Z" fill="#CAD1AE"/>
<path d="M663.478 95.2168C667.232 94.9786 670.986 94.7458 674.652 94.5077C675.761 94.3913 676.869 94.2749 677.893 93.8039C679.173 93.2166 680.113 91.9201 680.623 90.1527C681.049 88.6235 680.539 86.8614 679.599 86.3904C678.748 86.0359 677.893 85.5649 677.041 85.5649C675.078 85.4485 673.118 85.5649 671.071 85.5649C671.071 85.6813 671.071 85.6813 671.071 85.7978C668.429 85.7978 665.783 85.6813 663.141 85.7978C661.86 85.7978 661.262 87.0942 660.836 88.6235C660.667 89.2108 660.579 89.8035 660.495 90.3908C660.326 92.6239 661.944 95.3332 663.478 95.2168Z" fill="#CAD1AE"/>
<path d="M24.7339 94.7458C25.7577 94.3913 26.4403 92.7456 26.4403 91.211C26.3559 89.6818 25.589 87.9197 24.6495 87.6815C23.1156 87.327 21.6623 86.9778 20.1284 86.8613C15.9485 86.8613 11.8569 86.7396 7.42014 84.9775C6.31191 87.0942 5.45676 88.507 4.77802 90.0363C4.34853 90.9782 4.68982 91.9201 5.11931 92.6239C6.13934 94.2748 7.5045 95.3332 9.12658 95.4496C13.3064 95.566 17.4863 95.6877 21.5779 95.566C22.6018 95.566 23.71 95.095 24.7339 94.7458Z" fill="#CAD1AE"/>
</g>
</svg>
